<?xml version="1.0" standalone="no"?>
<!DOCTYPE svg PUBLIC "-//W3C//DTD SVG 1.1//EN" "http://www.w3.org/Graphics/SVG/1.1/DTD/svg11.dtd" >
<svg xmlns="http://www.w3.org/2000/svg">
<metadata>
This is a custom SVG webfont generated by Font Squirrel.
Copyright   : 2512003 Prescott Design All rights reserved
Foundry     :  Prescott Design
</metadata>
<defs>
<font id="ClementePDaeLight" horiz-adv-x="1085" >
<font-face units-per-em="2048" ascent="1638" descent="-410" />
<missing-glyph horiz-adv-x="598" />
<glyph unicode=" "  horiz-adv-x="598" />
<glyph unicode="&#x09;" horiz-adv-x="598" />
<glyph unicode="&#xa0;" horiz-adv-x="598" />
<glyph unicode="!" horiz-adv-x="354" d="M76 68q0 41 30.5 66.5t69.5 25.5t71 -25.5t32 -66.5t-32 -67t-71 -26t-69.5 26t-30.5 67zM94 1475h164l-41 -1227h-80z" />
<glyph unicode="&#x22;" horiz-adv-x="550" d="M111 934v541h108v-541h-108zM330 934v541h110v-539z" />
<glyph unicode="#" horiz-adv-x="1144" d="M0 498l12 90h297l43 297h-297l13 92h297l69 498h92l-69 -498h297l69 498h95l-70 -498h297l-12 -90h-297l-43 -297h297l-13 -92h-297l-69 -498h-95l72 498h-297l-72 -498h-92l70 498h-297zM403 588h297l41 299h-297z" />
<glyph unicode="$" horiz-adv-x="958" d="M39 567h127q2 -147 89 -217.5t239 -70.5q49 0 100 11t93 35.5t69.5 63.5t27.5 94q0 57 -25.5 94t-69.5 61t-104.5 38t-127.5 31q-78 18 -146.5 36.5t-121 51t-83 83t-30.5 130.5q0 53 22.5 102t66.5 88t111.5 62.5t157.5 27.5v187h92v-187q156 -10 255.5 -89t101.5 -245 h-123q0 131 -82 189.5t-207 58.5q-88 0 -141.5 -22.5t-81 -53t-36.5 -62.5t-9 -48q0 -68 42 -107t102.5 -62.5t128 -35.5t118.5 -27q57 -16 114.5 -35.5t102.5 -51t72.5 -79t27.5 -120.5q0 -82 -33.5 -140.5t-88 -95.5t-123 -55.5t-140.5 -20.5v-186h-90v186 q-186 10 -290.5 102.5t-106.5 278.5z" />
<glyph unicode="%" horiz-adv-x="1435" d="M76 1112q0 80 20.5 146.5t61.5 114.5t101 75t140 27h770v-76l-860 -1399h-92l860 1399h-473q61 -43 92 -117t31 -168q0 -74 -20.5 -139.5t-61.5 -114.5t-102.5 -77.5t-143.5 -28.5q-84 0 -144 28.5t-100 77.5t-59.5 114.5t-19.5 137.5zM172 1112q0 -55 13.5 -106.5 t41 -90t70.5 -62.5t102 -24t103.5 24t73 62.5t42 90t13.5 106.5q0 61 -13.5 113.5t-41 90.5t-71.5 60.5t-106 22.5q-61 0 -104 -22.5t-70.5 -61.5t-40 -91.5t-12.5 -111.5zM707 332q0 80 20.5 146.5t61 115.5t101 75.5t140.5 26.5q82 0 143.5 -26.5t103.5 -74.5t62.5 -114.5 t20.5 -146.5q0 -74 -20.5 -139.5t-62.5 -114.5t-103.5 -77t-141.5 -28q-84 0 -145.5 29t-101.5 78t-59 113.5t-19 136.5zM805 332q0 -55 12 -106.5t40 -89.5t71 -61.5t102 -23.5q61 0 104.5 23.5t72 62.5t42 89t13.5 106q0 123 -53.5 206t-176.5 83q-61 0 -105 -23 t-71 -61.5t-39 -92t-12 -112.5z" />
<glyph unicode="&#x26;" horiz-adv-x="1431" d="M45 414q0 70 20.5 134t59.5 116.5t95 86t128 40.5q-68 8 -118 39.5t-84.5 78.5t-52 104.5t-17.5 116.5q0 94 42 164t107.5 115t148.5 67.5t167 22.5q115 0 208 -31.5t159.5 -93t102.5 -153t36 -207.5h-129q4 176 -97.5 276.5t-275.5 100.5q-63 0 -125 -16.5t-111 -51.5 t-78.5 -87t-29.5 -122q0 -72 26.5 -124t72.5 -87t104.5 -52t123.5 -17h43v-97h-43q-74 0 -137 -19.5t-109 -59.5t-73 -98t-27 -136t35 -140.5t91.5 -106.5t128 -67.5t145.5 -23.5q98 0 181 28.5t141.5 83t89 132.5t24.5 176h-96q-53 0 -83 -11.5t-46.5 -30t-20.5 -42 t-4 -49.5l-98 45q0 41 9 77.5t32.5 65.5t65.5 46.5t108 17.5h295q51 0 81.5 10t47 28.5t20.5 42t4 50.5l99 -43q0 -41 -9.5 -78t-33 -65.5t-65.5 -46t-107 -17.5h-70q10 -129 -30 -228.5t-117.5 -167t-186 -101.5t-235.5 -34q-102 0 -198.5 30t-170.5 85t-119 137.5 t-45 186.5z" />
<glyph unicode="'" horiz-adv-x="329" d="M111 934v541h108v-539z" />
<glyph unicode="(" horiz-adv-x="428" d="M76 532q0 248 59.5 485.5t173.5 457.5h119q-111 -223 -168 -459t-57 -484q0 -252 57 -490.5t170 -463.5h-119q-59 117 -103 231.5t-74 231.5t-44 237.5t-14 253.5z" />
<glyph unicode=")" horiz-adv-x="428" d="M0 1475h119q57 -117 102 -232t74 -231.5t44 -238.5t15 -253q0 -248 -60.5 -485.5t-172.5 -456.5h-119q111 223 167 458.5t56 483.5q0 504 -225 955z" />
<glyph unicode="*" horiz-adv-x="677" d="M0 1190l33 102l266 -100l-14 283h108l-12 -283l264 100l33 -102l-272 -76l176 -221l-86 -64l-156 236l-158 -236l-86 64l176 221z" />
<glyph unicode="+" horiz-adv-x="1216" d="M92 682v111h461v462h111v-462h460v-111h-460v-463h-109v463h-463z" />
<glyph unicode="," horiz-adv-x="364" d="M0 -211l270 469l95 -55l-271 -467z" />
<glyph unicode="-" horiz-adv-x="614" d="M92 492v114h430v-114h-430z" />
<glyph unicode="." horiz-adv-x="354" d="M76 68q0 41 30.5 66.5t69.5 25.5t71 -25.5t32 -66.5t-32 -67t-71 -26t-69.5 26t-30.5 67z" />
<glyph unicode="/" horiz-adv-x="729" d="M0 0l621 1475h108l-620 -1475h-109z" />
<glyph unicode="0" horiz-adv-x="1243" d="M74 737q0 86 12 175t39 174t69 160t103 131.5t140 89t181 32.5t182.5 -32.5t140.5 -89t103 -131.5t70 -160t39 -174t12 -175t-12 -175t-39 -174t-68.5 -159.5t-103 -131t-141.5 -89.5t-180 -33q-102 0 -182.5 33t-140.5 89.5t-103 131t-70 159.5t-39 174t-12 175z M201 737q0 -100 17.5 -214.5t64.5 -212t128 -162t207 -64.5q127 0 208 64.5t128 162t65.5 212t18.5 214.5t-18.5 215t-64.5 212.5t-128 162t-206 64.5q-127 0 -209 -64.5t-129 -162t-64.5 -212.5t-17.5 -215z" />
<glyph unicode="1" horiz-adv-x="1243" d="M270 1262q0 43 9.5 80.5t34 67.5t67.5 47.5t111 17.5h215v-1475h-144v1350h-35q-53 0 -83.5 -11.5t-47 -30t-20.5 -43t-4 -51.5z" />
<glyph unicode="2" horiz-adv-x="1243" d="M100 0q-4 100 39 186t113 160t157 137.5t171 120.5q68 45 133 96.5t117.5 109.5t84 122.5t31.5 136.5t-24.5 130t-69.5 100t-105.5 66t-134.5 24q-98 0 -166.5 -35t-111.5 -94.5t-62.5 -137.5t-19.5 -164h-127q-2 123 29.5 222.5t93 170t154 109.5t210.5 39 q94 0 179.5 -26.5t150 -80t101 -131t36.5 -180.5q0 -84 -31.5 -159.5t-85 -142t-122 -126t-142.5 -110.5q-72 -49 -139 -100.5t-124.5 -104.5t-99.5 -108.5t-59 -112.5h623q51 0 82 11t47 29.5t20.5 42t4.5 50.5l98 -43q0 -45 -10.5 -83t-35 -65.5t-66.5 -43t-103 -15.5 h-836z" />
<glyph unicode="3" horiz-adv-x="1243" d="M98 506h129q-6 -98 19.5 -176t79 -132.5t131.5 -83t176 -28.5q74 0 141.5 23.5t117.5 66.5t81 105.5t31 140.5t-27 137t-74 99t-110.5 59.5t-137.5 19.5h-43v97h43q63 0 123 17t106 52t72.5 87t26.5 124q0 70 -29.5 122t-79 87t-111 51.5t-122.5 16.5 q-174 0 -276.5 -100.5t-98.5 -276.5h-127q0 117 36 208t101.5 152.5t158.5 93t208 31.5q82 0 166 -22.5t149.5 -67.5t107.5 -113.5t42 -162.5q0 -59 -17.5 -118t-51 -106t-85 -78.5t-118.5 -39.5q74 -6 130 -40t95 -86.5t59.5 -117t20.5 -133.5q0 -104 -42 -185.5 t-113 -137.5t-162 -86t-187 -30q-121 0 -223.5 35t-176 102.5t-111.5 167t-28 226.5z" />
<glyph unicode="4" horiz-adv-x="1243" d="M68 416v133l684 926h141v-940h49q51 0 82 11t46 29.5t19.5 42t4.5 50.5l98 -45q0 -41 -9 -78t-33 -65.5t-66 -46t-107 -17.5h-84v-416h-137v416h-688zM170 535h586v802z" />
<glyph unicode="5" horiz-adv-x="1243" d="M63 444h134q2 -178 107.5 -268t277.5 -90q86 0 157.5 27.5t121.5 78t78 121t28 156.5t-28 155.5t-78 120t-119.5 78t-155.5 27.5q-104 0 -197.5 -44t-146.5 -140h-133l163 809h701q217 0 215 -207l-98 -43q4 78 -37 105.5t-115 27.5h-561l-123 -580q61 88 161.5 129 t207.5 41q106 0 194 -34.5t151.5 -98t97.5 -153t34 -195.5q0 -115 -40 -206t-109.5 -154.5t-165 -97.5t-205.5 -34q-109 0 -204 30t-166 89.5t-111 146t-36 203.5z" />
<glyph unicode="6" horiz-adv-x="1243" d="M90 692q0 141 27.5 284.5t95.5 259.5t179.5 189.5t279.5 73.5q76 0 148.5 -17.5t137.5 -58.5l-75 -88q-47 33 -102.5 46.5t-112.5 13.5q-135 0 -222.5 -65.5t-137.5 -166t-69.5 -220.5t-21.5 -228v-35q23 72 69 129t105.5 98t131 63.5t147.5 22.5q104 0 196 -39 t161 -106.5t108 -158.5t39 -195q0 -115 -41 -209.5t-113 -164t-169 -107.5t-210 -38q-137 0 -254 61.5t-188 168.5q-68 104 -88.5 232t-20.5 255zM240 492q0 -84 31.5 -158t86 -128t127 -86t156.5 -32t158.5 32t130 86t87.5 128t32 158t-32 157.5t-87.5 127.5t-130 86 t-158.5 32t-156.5 -32t-127 -86t-86 -127.5t-31.5 -157.5z" />
<glyph unicode="7" horiz-adv-x="1243" d="M92 1268q0 41 9.5 77.5t34 65.5t66.5 46.5t107 17.5h824v-117l-474 -1358h-149l471 1358h-637q-53 0 -83 -11.5t-46 -30t-20.5 -42t-4.5 -49.5z" />
<glyph unicode="8" horiz-adv-x="1243" d="M129 426q0 152 86 259.5t225 143.5q-100 35 -157.5 119t-57.5 195q0 82 33 148.5t88 112.5t126 70.5t149 24.5q76 0 147.5 -25.5t126.5 -71.5t89 -111.5t34 -147.5q0 -106 -58.5 -192.5t-156.5 -121.5q68 -16 124 -54t98 -91t64.5 -118.5t22.5 -139.5q0 -102 -41 -185 t-108.5 -141.5t-156.5 -91.5t-185 -33q-98 0 -187.5 32t-157 90.5t-107.5 142.5t-40 186zM260 426q0 -74 28.5 -137.5t78 -108.5t115 -70.5t139.5 -25.5q72 0 137 25.5t114.5 71.5t79 108.5t29.5 136.5q0 76 -27.5 140.5t-77 111.5t-115 73.5t-138.5 26.5 q-76 0 -141.5 -26.5t-115 -72.5t-78 -111.5t-28.5 -141.5zM346 1133q0 -57 21.5 -105.5t59.5 -83.5t88 -54.5t106 -19.5q55 0 105 19.5t88 54.5t60.5 83t22.5 106q0 59 -21.5 107t-59.5 83t-88 54.5t-107 19.5t-107.5 -19.5t-87.5 -54.5t-58.5 -84t-21.5 -106z" />
<glyph unicode="9" horiz-adv-x="1243" d="M86 981q0 113 41 208t112.5 164.5t169 107.5t209.5 38q135 0 252 -61.5t189 -167.5q70 -104 89 -232.5t19 -255.5q0 -141 -27.5 -284.5t-94 -259t-178 -189.5t-279.5 -74q-76 0 -148.5 17.5t-138.5 58.5l74 88q49 -33 104.5 -46t112.5 -13q135 0 222 65.5t137 166 t69.5 220t21.5 228.5v35q-23 -72 -68.5 -129.5t-105 -98.5t-131 -63.5t-147.5 -22.5q-104 0 -196.5 39t-161 106.5t-107.5 159t-39 195.5zM211 983q0 -84 31.5 -157.5t87 -128t130.5 -86t158 -31.5q84 0 157 31.5t127 86t86 128t32 157.5t-32 157.5t-86 128t-127 86 t-157 31.5t-158.5 -31.5t-130 -86t-87 -128t-31.5 -157.5z" />
<glyph unicode=":" horiz-adv-x="354" d="M76 68q0 41 30.5 66.5t69.5 25.5t71 -25.5t32 -66.5t-32 -67t-71 -26t-69.5 26t-30.5 67zM76 987q0 41 30.5 66.5t69.5 25.5t71 -25.5t32 -66.5t-32 -66.5t-71 -25.5t-69.5 25.5t-30.5 66.5z" />
<glyph unicode=";" horiz-adv-x="354" d="M0 -211l270 469l95 -55l-271 -467zM76 987q0 41 30.5 66.5t69.5 25.5t71 -25.5t32 -66.5t-32 -66.5t-71 -25.5t-69.5 25.5t-30.5 66.5z" />
<glyph unicode="&#x3c;" horiz-adv-x="1222" d="M92 686v102l1038 484v-115l-890 -420l890 -420v-114z" />
<glyph unicode="=" horiz-adv-x="1216" d="M92 471v111h1032v-111h-1032zM92 893v111h1032v-111h-1032z" />
<glyph unicode="&#x3e;" horiz-adv-x="1222" d="M92 203v114l893 420l-893 420v115l1038 -484v-102z" />
<glyph unicode="?" horiz-adv-x="1067" d="M76 1001q-2 104 27.5 194.5t89 157t149.5 105.5t209 39q100 0 182 -26.5t139.5 -74.5t88 -115t30.5 -144q0 -82 -22.5 -139.5t-57 -99.5t-72.5 -72.5t-69 -55.5q-51 -43 -86 -80t-55.5 -78t-29.5 -89t-9 -111v-189h-127v187q0 59 7 113.5t27.5 104.5t57.5 99t94 98 q14 12 48 36t68 60.5t59.5 88t25.5 118.5q0 123 -84 187.5t-217 64.5q-86 0 -150.5 -27.5t-106.5 -78.5t-62.5 -121t-16.5 -152h-137zM426 68q0 41 30.5 66.5t69.5 25.5t70 -25.5t31 -66.5t-31 -67t-70 -26t-69.5 26t-30.5 67z" />
<glyph unicode="@" horiz-adv-x="1615" d="M76 741q0 164 59.5 303.5t162.5 240.5t244.5 157.5t305.5 56.5q139 0 264 -42t220 -123t151.5 -197.5t56.5 -264.5q0 -131 -51 -256q-33 -74 -89.5 -143.5t-131.5 -120.5q-47 -31 -97.5 -51t-103.5 -20q-47 0 -85 26.5t-40 75.5q-2 12 0 27q-47 -70 -117.5 -99.5 t-150.5 -29.5q-68 0 -123 25.5t-95 69.5t-61.5 102.5t-21.5 123.5q0 98 34.5 200.5t98 186.5t151.5 137.5t197 53.5q86 0 166 -42t115 -128l45 131l80 -2l-193 -547q-12 -35 -23.5 -74t-11.5 -78q0 -76 74 -75q39 0 73.5 14t63.5 35q51 37 91 87t66.5 109.5t41 122 t14.5 123.5q0 133 -48 236.5t-131 175t-194.5 109.5t-236.5 38q-143 0 -268 -51t-218.5 -141t-146.5 -214t-53 -268q0 -152 50 -277.5t140 -215.5t216 -139.5t278 -49.5q166 0 312.5 75t248.5 204h94q-53 -84 -124.5 -151.5t-156.5 -114.5t-180.5 -72t-193.5 -25 q-170 0 -311.5 56.5t-243 158t-157.5 241.5t-56 310zM473 610q0 -49 16.5 -91t45 -74.5t70.5 -51t91 -18.5q106 0 176 57t109 150q31 76 60.5 159.5t60.5 163.5q-20 90 -89 135t-157 45q-84 0 -154.5 -46t-122 -116.5t-79 -153.5t-27.5 -159z" />
<glyph unicode="A" d="M111 0v1077q0 211 109.5 321.5t322.5 110.5q215 0 323.5 -110.5t108.5 -319.5v-1079h-144v678h-577v-678h-143zM254 797h577v239q0 80 -13 144.5t-47 111.5t-89 73t-139 26t-140.5 -26t-89 -73t-46 -111.5t-13.5 -144.5v-239z" />
<glyph unicode="B" d="M111 0v1475h421q86 0 164 -22.5t136.5 -68t92 -114t33.5 -162.5q0 -63 -20 -118.5t-57 -98.5t-88.5 -73t-112.5 -38q150 -16 240 -116.5t90 -251.5q0 -106 -40 -184t-107.5 -128.5t-157 -75t-185.5 -24.5h-409zM254 117h252q72 0 137.5 17.5t114.5 54t78.5 95t29.5 138.5 q0 76 -27.5 132t-75.5 92t-111.5 53.5t-135.5 17.5h-262v-600zM254 815h250q63 0 120.5 16.5t100.5 50t68.5 85t25.5 118.5h2q0 70 -24.5 121t-67.5 85t-100.5 50.5t-124.5 16.5h-250v-543z" />
<glyph unicode="C" horiz-adv-x="1468" d="M76 727q0 160 46 302t135 248.5t219 169t300 62.5q109 0 216.5 -34.5t194.5 -99t143 -157t63 -208.5h-140q-10 88 -55 157.5t-111.5 118.5t-148.5 76t-164 27q-139 0 -242.5 -56.5t-173 -148.5t-104.5 -211t-35 -244q0 -121 34 -236.5t100.5 -205.5t167 -145.5 t233.5 -55.5q113 0 198.5 37t147 102.5t99.5 154.5t54 193h140q-12 -133 -62.5 -244.5t-131.5 -192.5t-192.5 -126t-248.5 -45q-164 0 -290 62.5t-214 167t-133 242.5t-45 290z" />
<glyph unicode="D" horiz-adv-x="1128" d="M111 0v1475h311q166 0 284.5 -57.5t195.5 -158t114 -234.5t37 -288q0 -166 -46 -302t-135.5 -232.5t-219.5 -149.5t-300 -53h-241zM254 125h98q139 0 243.5 47t174.5 129t104.5 194.5t34.5 243.5t-30.5 244t-95 193.5t-165 127t-241.5 46.5h-123v-1225z" />
<glyph unicode="E" d="M111 0v1475h870v-125h-727v-553h670v-119h-670v-553h739v-125h-882z" />
<glyph unicode="F" d="M111 0v1475h870v-125h-727v-553h670v-119h-670v-678h-143z" />
<glyph unicode="G" horiz-adv-x="1503" d="M76 727q0 160 46 302t135 248.5t219 169t300 62.5q109 0 216.5 -34.5t194.5 -99t143 -157t63 -208.5h-140q-10 88 -55 157.5t-111.5 118.5t-148.5 76t-164 27q-139 0 -242.5 -56.5t-173 -148.5t-104.5 -211t-35 -244q0 -121 34 -236.5t100.5 -205.5t167 -145.5 t233.5 -55.5q106 0 190 35t145.5 95t99.5 144t54 183h-469v119h619v-404q0 -53 11 -85t30.5 -48t44 -20.5t51.5 -4.5l-49 -110q-61 0 -96 20.5t-54.5 61.5t-29 100t-15.5 139q-68 -156 -199 -251t-329 -95q-164 0 -290 62.5t-214 167t-133 242.5t-45 290z" />
<glyph unicode="H" horiz-adv-x="1146" d="M111 0v1475h143v-668h637v668h143v-1475h-143v688h-637v-688h-143z" />
<glyph unicode="I" horiz-adv-x="364" d="M111 0v1475h143v-1475h-143z" />
<glyph unicode="J" d="M111 395v178h131v-167q0 -156 70.5 -240t222.5 -84q154 0 225 85t71 271v912h-434q-53 0 -82.5 -11.5t-46 -30t-20.5 -43t-4 -51.5l-105 48q0 43 9.5 80.5t34 67.5t67.5 47.5t110 17.5h615v-1057q0 -213 -101.5 -333t-336.5 -120q-113 0 -193 32t-132 89t-76.5 136 t-24.5 173z" />
<glyph unicode="K" horiz-adv-x="878" d="M111 0v1475h143v-617l457 617h168l-541 -738l541 -737h-168l-457 616v-616h-143z" />
<glyph unicode="L" d="M111 0v1475h143v-1350h573q53 0 84 11t47.5 29.5t20.5 43t4 51.5l102 -47q0 -43 -9 -81t-33.5 -67.5t-67.5 -47t-111 -17.5h-753z" />
<glyph unicode="M" horiz-adv-x="1806" d="M111 0v1079q0 211 109.5 320.5t322.5 109.5q270 0 360 -200q90 201 361 200q213 0 322.5 -109.5t109.5 -320.5v-1079h-144v1036q0 80 -13 145.5t-47 111.5t-89 72t-139 26t-140.5 -26t-89.5 -73t-46 -111.5t-13 -144.5v-1036h-144v1036q0 80 -13 145.5t-47 111.5t-89 72 t-139 26t-139.5 -26t-89 -73t-47 -111.5t-13.5 -144.5v-1036h-143z" />
<glyph unicode="N" d="M111 0v1079q0 211 109.5 320.5t322.5 109.5q215 0 323.5 -110.5t108.5 -319.5v-1079h-144v1036q0 80 -13 144.5t-47 111.5t-89 73t-139 26t-140.5 -26t-89 -73t-46 -111.5t-13.5 -144.5v-1036h-143z" />
<glyph unicode="O" horiz-adv-x="1533" d="M76 737q0 156 45 296.5t133 246.5t217 167.5t295 61.5t295 -61.5t217 -167.5t134 -246.5t46 -296.5q0 -158 -46 -297t-134 -245.5t-217 -168t-295 -61.5t-295 61.5t-217 168t-133 245.5t-45 297zM219 737q0 -127 34 -243.5t101.5 -207.5t170 -145.5t241.5 -54.5 t241.5 54.5t170 145.5t101.5 207.5t34 243.5h2q0 125 -34 243t-101.5 209t-171 145.5t-242.5 54.5t-241.5 -54.5t-170 -145.5t-101.5 -209t-34 -243z" />
<glyph unicode="P" horiz-adv-x="1087" d="M111 0v1475h434q115 0 203 -31t146 -87.5t88 -134t30 -171.5q0 -106 -37 -186.5t-101.5 -134.5t-155.5 -80.5t-198 -26.5h-266v-623h-143zM254 739h258q76 0 141.5 18.5t114.5 56.5t77.5 96.5t28.5 136.5q0 154 -91 228.5t-265 74.5h-264v-611z" />
<glyph unicode="Q" horiz-adv-x="1533" d="M76 737q0 156 45 296.5t133 246.5t217 167.5t295 61.5t295 -61.5t217 -167.5t134 -246.5t46 -296.5q0 -137 -36 -267t-113 -239l194 -182q27 -25 53.5 -45t59.5 -22q27 0 49.5 14t42.5 35l23 -109q-29 -29 -66 -48t-78 -19q-45 0 -84 25.5t-78 64.5l-213 209 q-86 -96 -199.5 -142.5t-246.5 -46.5q-166 0 -295 61.5t-217 168t-133 245.5t-45 297zM219 737q0 -127 34 -243.5t101.5 -207.5t170 -145.5t241.5 -54.5q111 0 206 41t165 127l-172 166q-25 25 -53.5 45t-59.5 22q-27 0 -50.5 -14t-41.5 -35l-25 109q31 29 67 48t77 19 q3 0 6 1q41 0 78 -25q39 -27 79 -66l170 -162q53 84 77 180.5t24 194.5h2q0 125 -34 243t-101.5 209t-171 145.5t-242.5 54.5t-241.5 -54.5t-170 -145.5t-101.5 -209t-34 -243z" />
<glyph unicode="R" horiz-adv-x="1089" d="M113 0v1475h446q98 0 182 -21.5t144.5 -69t94.5 -122t34 -181.5q0 -141 -77 -237t-212 -131q84 -14 137 -49t83 -86.5t40 -118t10 -144.5v-315h-141v299q0 94 -16.5 161.5t-55.5 110.5t-104.5 63.5t-163.5 20.5h-258v-655h-143zM256 764h254q68 0 133.5 16.5t115.5 53 t80.5 96t30.5 143.5q0 133 -81.5 209t-270.5 76h-262v-594z" />
<glyph unicode="S" horiz-adv-x="1214" d="M29 489h143q0 -113 38 -191.5t102.5 -127.5t152.5 -71.5t190 -22.5q72 0 139.5 17.5t121 54t85 94t31.5 137.5q0 90 -40 144.5t-104.5 87t-148.5 52t-170 42.5q-90 23 -178 47t-157.5 65t-113.5 108.5t-44 176.5q0 113 46 191.5t120.5 125.5t168 68.5t187.5 21.5 q111 0 207 -24.5t169 -77.5t116 -141t49 -213h-138q-2 94 -33.5 159.5t-87 107.5t-128 60.5t-154.5 18.5q-66 0 -133.5 -13.5t-123.5 -46t-92 -86t-36 -135.5q0 -84 43 -135t110.5 -84t153.5 -52.5t176 -41.5q96 -25 183.5 -51.5t153 -70.5t104.5 -113.5t39 -180.5 q0 -113 -45.5 -193.5t-119 -132t-168.5 -75t-196 -23.5q-109 0 -220.5 26.5t-200.5 88t-144 162.5q-53 97 -53 237v10z" />
<glyph unicode="T" d="M0 1262q0 43 9 80.5t34 67.5t68 47.5t110 17.5h864v-125h-471v-1350h-143v1350h-213q-53 0 -84 -11.5t-47 -30t-20.5 -43t-4.5 -51.5z" />
<glyph unicode="U" d="M111 395v1080h143v-1037q0 -80 13.5 -144.5t47 -111.5t89 -72.5t139.5 -25.5t140 25.5t89 72.5t46 111.5t13 144.5v1037h144v-1078q0 -211 -109.5 -321.5t-322.5 -110.5q-215 0 -323.5 110.5t-108.5 319.5z" />
<glyph unicode="V" horiz-adv-x="1167" d="M0 1475h150l434 -1227l432 1227h151l-510 -1475h-149z" />
<glyph unicode="W" horiz-adv-x="1806" d="M111 395v1080h143v-1037q0 -80 13.5 -145.5t47 -111.5t89 -71.5t139.5 -25.5t140 25.5t89 72.5t46 111.5t13 144.5v1037h144v-1037q0 -80 13 -145.5t47 -111.5t89.5 -71.5t139.5 -25.5t139 25.5t89 72.5t47 111.5t13 144.5v1037h144v-1080q0 -211 -109.5 -320.5 t-322.5 -109.5q-270 0 -361 201q-90 -201 -360 -201q-213 0 -322.5 109.5t-109.5 320.5z" />
<glyph unicode="X" horiz-adv-x="1251" d="M0 0l541 737l-541 738h168l457 -617l456 617h170l-542 -738l542 -737h-170l-456 616l-457 -616h-168z" />
<glyph unicode="Y" d="M111 1110v365h143v-324q0 -80 13.5 -144.5t47 -111.5t89 -72.5t139.5 -25.5t140 25.5t89 72.5t46 111.5t13 144.5v324h144v-365q0 -193 -91 -300.5t-270 -123.5v-686h-143v686q-180 16 -270 123.5t-90 300.5z" />
<glyph unicode="Z" horiz-adv-x="1142" d="M12 0v129l946 1221h-882v125h1063v-123l-949 -1227h709q53 0 84 11t47.5 29.5t20.5 43t4 51.5l104 -47q0 -43 -9 -81t-33.5 -67.5t-67.5 -47t-111 -17.5h-926z" />
<glyph unicode="[" horiz-adv-x="546" d="M111 -422v1897h344v-109h-224v-1679h224v-109h-344z" />
<glyph unicode="\" horiz-adv-x="729" d="M0 1475h109l620 -1475h-108z" />
<glyph unicode="]" horiz-adv-x="546" d="M96 -313h223v1679h-223v109h344v-1897h-344v109z" />
<glyph unicode="^" horiz-adv-x="980" d="M0 592l444 883h93l444 -883h-109l-380 762l-383 -762h-109z" />
<glyph unicode="_" horiz-adv-x="1024" d="M0 -154h1024v-102h-1024v102z" />
<glyph unicode="`" horiz-adv-x="0" d="M379 1456h151l244 -297h-94z" />
<glyph unicode="a" horiz-adv-x="1177" d="M76 510q0 117 32.5 221.5t97 182t161 122.5t221.5 45q106 0 199.5 -43t146.5 -129v146h133v-1055h-131v164q-55 -90 -149.5 -139.5t-217.5 -49.5q-115 0 -206 41t-154.5 114t-98 170t-34.5 210zM209 510q0 -88 23.5 -167t71.5 -137.5t119 -92t167 -33.5q66 0 128 20.5 t110.5 58.5t78 92t29.5 124v340q0 55 -29.5 103t-78 83t-106.5 55.5t-114 20.5q-111 0 -187.5 -41t-123.5 -106.5t-67.5 -149.5t-20.5 -170z" />
<glyph unicode="b" horiz-adv-x="1177" d="M111 0v1475h131v-566q55 86 148 129t200 43q125 0 221 -45t160.5 -122.5t97.5 -182t33 -221.5q0 -113 -35 -210t-98.5 -170t-155.5 -114t-205 -41q-123 0 -217 49.5t-147 139.5v-164h-133zM242 375q0 -70 29.5 -124t77.5 -92t110.5 -58.5t128.5 -20.5q94 0 165.5 33.5 t120 92t72 137.5t23.5 167q0 86 -20.5 170t-67.5 149.5t-124 106.5t-188 41q-55 0 -113.5 -20.5t-106.5 -55.5t-77.5 -83t-29.5 -103v-340z" />
<glyph unicode="c" horiz-adv-x="1101" d="M76 510q0 117 33.5 221.5t98 182t160 122.5t220.5 45q84 0 159.5 -24.5t134 -71.5t96.5 -114.5t48 -155.5h-127q-18 123 -102 192.5t-207 69.5q-102 0 -175 -39t-119 -103.5t-67.5 -148.5t-21.5 -176q0 -84 22.5 -162t67.5 -137t113.5 -95t160.5 -36q68 0 125.5 21.5 t100.5 59.5t69.5 92t32.5 122h127q-10 -94 -48 -168t-97.5 -125t-139 -79t-172.5 -28q-115 0 -207 42t-155.5 115t-97 170t-33.5 208z" />
<glyph unicode="d" horiz-adv-x="1177" d="M76 510q0 117 32.5 221.5t97 182t161 122.5t221.5 45q106 0 199.5 -43t146.5 -129v566h133v-1475h-131v164q-55 -90 -149.5 -139.5t-217.5 -49.5q-115 0 -206 41t-154.5 114t-98 170t-34.5 210zM209 510q0 -88 23.5 -167t71.5 -137.5t119 -92t167 -33.5q66 0 128 20.5 t110.5 58.5t78 92t29.5 124v340q0 55 -29.5 103t-78 83t-106.5 55.5t-114 20.5q-111 0 -187.5 -41t-123.5 -106.5t-67.5 -149.5t-20.5 -170z" />
<glyph unicode="e" horiz-adv-x="1101" d="M76 510q0 117 33.5 221.5t98 182t160 122.5t220.5 45q84 0 159.5 -24.5t134 -71.5t96.5 -114.5t48 -155.5l-811 -295q8 -72 36 -133.5t72 -107.5t106.5 -72.5t141.5 -26.5q68 0 125.5 21.5t100.5 59.5t69.5 92t32.5 122h127q-10 -94 -48 -168t-97.5 -125t-139 -79 t-172.5 -28q-115 0 -207 42t-155.5 115t-97 170t-33.5 208zM211 508l676 248q-27 104 -106 162.5t-191 58.5q-98 0 -169 -36t-117 -96.5t-68.5 -139t-24.5 -166.5v-31z" />
<glyph unicode="f" horiz-adv-x="354" d="M0 954v95h111v225q0 70 18 114t48 69.5t70 34.5t83 9q53 0 82.5 -3t58.5 -3v-109q-12 4 -36.5 5.5t-53.5 1.5t-53.5 -4.5t-44 -20.5t-30.5 -47t-11 -84v-182h112v-101h-110v-954h-133v954h-111z" />
<glyph unicode="g" horiz-adv-x="1165" d="M76 510q0 117 32.5 221.5t97 182t161 122.5t221.5 45q106 0 199.5 -43t146.5 -129v146h133v-1069v2q0 -100 -26.5 -182t-83 -140.5t-145.5 -90.5t-212 -32q-84 0 -161 17.5t-137 57.5t-98 104.5t-44 158.5h131q4 -63 30.5 -110t67.5 -78t94.5 -45.5t112.5 -14.5 q168 0 254 91.5t86 255.5v184q-55 -90 -149.5 -139.5t-217.5 -49.5q-115 0 -206 41t-154.5 114t-98 170t-34.5 210zM209 510q0 -88 23.5 -167t71.5 -137.5t119 -92t167 -33.5q66 0 128 20.5t109 58.5t77 92t30 124l2 340q0 55 -29.5 103t-78 83t-106.5 55.5t-114 20.5 q-111 0 -187.5 -41t-123.5 -106.5t-67.5 -149.5t-20.5 -170z" />
<glyph unicode="h" horiz-adv-x="1097" d="M111 0v1475h131v-644q45 125 142 187.5t230 62.5q172 0 272.5 -101t100.5 -273v-707h-133v657q0 139 -69.5 225.5t-213.5 86.5q-84 0 -145 -32t-101 -84t-60.5 -120.5t-20.5 -144.5v-588h-133z" />
<glyph unicode="i" horiz-adv-x="354" d="M76 1417q0 41 30.5 66.5t69.5 25.5t71 -25.5t32 -66.5t-32 -66.5t-71 -25.5t-69.5 25.5t-30.5 66.5zM111 0v1055h131v-1055h-131z" />
<glyph unicode="j" horiz-adv-x="354" d="M-664 -119h132q4 -63 29.5 -110t67.5 -78t94 -45.5t112 -14.5q168 0 254 91.5t86 255.5v1075h131v-1069l2 2q0 -100 -27 -182t-83 -140.5t-145 -90.5t-212 -32q-84 0 -161 17.5t-137.5 57.5t-98.5 104.5t-44 158.5zM76 1417q0 41 30.5 66.5t69.5 25.5t71 -25.5t32 -66.5 t-32 -66.5t-71 -25.5t-69.5 25.5t-30.5 66.5z" />
<glyph unicode="k" horiz-adv-x="704" d="M111 0v1475h131v-840l315 420h148l-388 -527l388 -528h-148l-313 420v-420h-133z" />
<glyph unicode="l" horiz-adv-x="354" d="M111 0v1475h133v-1475h-133z" />
<glyph unicode="m" horiz-adv-x="1841" d="M111 0v1055h131v-224q45 125 142 187.5t230 62.5q147 0 240.5 -75.5t120.5 -206.5q41 141 138 211.5t245 70.5q172 0 272.5 -101t100.5 -273v-707h-134v657q0 137 -69.5 224.5t-212.5 87.5q-84 0 -145.5 -32t-101.5 -84t-60.5 -120.5t-20.5 -144.5v-588h-133v657 q0 137 -69.5 224.5t-213.5 87.5q-84 0 -145 -32t-101 -84t-60.5 -120.5t-20.5 -144.5v-588h-133z" />
<glyph unicode="n" horiz-adv-x="1097" d="M111 0v1055h131v-224q45 125 142 187.5t230 62.5q172 0 272.5 -101t100.5 -273v-707h-133v657q0 139 -69.5 225.5t-213.5 86.5q-84 0 -145 -32t-101 -84t-60.5 -120.5t-20.5 -144.5v-588h-133z" />
<glyph unicode="o" horiz-adv-x="1153" d="M76 528q0 109 31.5 208.5t94 176t157 122.5t219.5 46q123 0 217 -46t156.5 -122.5t94 -176t31.5 -208.5t-31.5 -209t-95 -176.5t-157 -122t-218.5 -45.5q-123 0 -217 45.5t-156.5 122t-94 176.5t-31.5 209zM207 528q0 -86 22.5 -165.5t68.5 -143t115.5 -101.5t164.5 -38 q92 0 161.5 38t114.5 100.5t67.5 143t22.5 166.5q0 84 -22.5 165t-67.5 143.5t-114.5 101.5t-161.5 39q-94 0 -164 -39t-116 -101.5t-68.5 -143.5t-22.5 -165z" />
<glyph unicode="p" horiz-adv-x="1177" d="M111 -422v1477h131v-146q55 86 148 129t200 43q125 0 221 -45t160.5 -122.5t97.5 -182t33 -221.5q0 -113 -35 -210t-98.5 -170t-155.5 -114t-205 -41q-123 0 -217 49.5t-147 139.5v-586h-133zM242 375q0 -70 29.5 -124t77.5 -92t110.5 -58.5t128.5 -20.5q94 0 165.5 33.5 t120 92t72 137.5t23.5 167q0 86 -20.5 170t-67.5 149.5t-124 106.5t-188 41q-55 0 -113.5 -20.5t-106.5 -55.5t-77.5 -83t-29.5 -103v-340z" />
<glyph unicode="q" horiz-adv-x="1177" d="M76 510q0 117 32.5 221.5t97 182t161 122.5t221.5 45q106 0 199.5 -43t146.5 -129v146h133v-1477h-131v586q-55 -90 -149.5 -139.5t-217.5 -49.5q-115 0 -206 41t-154.5 114t-98 170t-34.5 210zM209 510q0 -88 23.5 -167t71.5 -137.5t119 -92t167 -33.5q66 0 128 20.5 t110.5 58.5t78 92t29.5 124v340q0 55 -29.5 103t-78 83t-106.5 55.5t-114 20.5q-111 0 -187.5 -41t-123.5 -106.5t-67.5 -149.5t-20.5 -170z" />
<glyph unicode="r" horiz-adv-x="657" d="M111 0v1055h131v-224q45 125 142 186.5t230 61.5h22q11 0 21 -2l-86 -108q-84 0 -145 -32t-101 -84t-60.5 -120.5t-20.5 -144.5v-588h-133z" />
<glyph unicode="s" horiz-adv-x="958" d="M39 358h127q2 -150 89 -220t239 -70q49 0 100 11t93 35.5t69.5 63.5t27.5 96t-25.5 94.5t-69.5 61t-104.5 37.5t-127.5 31q-78 18 -147.5 36.5t-122 50t-82 82t-29.5 130.5q0 57 26.5 109t76.5 91t123 61.5t167 22.5q86 0 162 -18.5t131 -59t88 -104t33 -156.5h-123 q0 131 -82 190.5t-207 59.5q-88 0 -141.5 -23.5t-81 -54t-36.5 -62.5t-9 -48q0 -68 42 -107t102.5 -61.5t128 -34.5t118.5 -27q57 -16 114.5 -35.5t102.5 -51t72.5 -79t27.5 -120.5q0 -86 -37.5 -146.5t-97 -97.5t-134.5 -53.5t-150 -16.5q-102 0 -185.5 22.5t-143 69 t-92 119t-32.5 172.5z" />
<glyph unicode="t" horiz-adv-x="354" d="M0 963v92h111v262l131 102v-364h112v-92h-110v-963h-133v963h-111z" />
<glyph unicode="u" horiz-adv-x="1097" d="M111 348v707h131v-658q0 -139 69.5 -225t214.5 -86q82 0 143.5 32t102.5 84t61.5 120.5t20.5 144.5v588h133v-1055h-133v223q-43 -125 -140.5 -186.5t-230.5 -61.5q-174 0 -273 100.5t-99 272.5z" />
<glyph unicode="v" horiz-adv-x="886" d="M0 1055h139l305 -844l304 844h139l-373 -1055h-141z" />
<glyph unicode="w" horiz-adv-x="1841" d="M111 348v707h131v-658q0 -137 69.5 -224t214.5 -87q82 0 143.5 32t102.5 84t61.5 120.5t20.5 144.5v588h131v-658q0 -137 69.5 -224t215.5 -87q82 0 143.5 32t102 84t61 120.5t20.5 144.5v588h134v-1055h-134v223q-43 -125 -141 -186.5t-229 -61.5q-147 0 -241.5 75 t-119.5 206q-41 -141 -138 -211t-245 -70q-174 0 -273 100.5t-99 272.5z" />
<glyph unicode="x" horiz-adv-x="923" d="M0 0l387 528l-387 527h147l316 -420l313 420h148l-387 -527l387 -528h-148l-313 420l-313 -420h-150z" />
<glyph unicode="y" horiz-adv-x="1097" d="M80 -119h131q4 -63 29.5 -110t67.5 -78t94.5 -45.5t111.5 -14.5q168 0 254 91.5t86 255.5v243q-43 -125 -140.5 -186.5t-230.5 -61.5q-174 0 -273 100.5t-99 272.5v707h131v-658q0 -139 69.5 -225t214.5 -86q82 0 143.5 32t102.5 84t61.5 120.5t20.5 144.5v588h133v-1069 v2q0 -100 -26.5 -182t-83 -140.5t-145.5 -90.5t-212 -32q-84 0 -160.5 17.5t-137 57.5t-98.5 104.5t-44 158.5z" />
<glyph unicode="z" horiz-adv-x="909" d="M16 0v117l678 833h-624v105h786v-115l-674 -836h492q51 0 79.5 10.5t44 29t19.5 42t4 47.5l88 -38q0 -39 -8 -74t-31.5 -61.5t-63.5 -43t-101 -16.5h-689z" />
<glyph unicode="{" horiz-adv-x="657" d="M92 477v109q31 4 59.5 28.5t49 62.5t33 88t12.5 105v371q0 233 184 234h135v-109h-90q-63 0 -86.5 -43t-23.5 -154v-346q0 -47 -12.5 -94t-34 -87t-54.5 -70.5t-71 -43.5q76 -27 122.5 -106.5t46.5 -196.5v-340q0 -117 28 -157.5t87 -40.5h88v-109h-135q-184 0 -184 236 v364q0 111 -34 182.5t-120 116.5z" />
<glyph unicode="|" horiz-adv-x="329" d="M111 0v1475h108v-1475h-108z" />
<glyph unicode="}" horiz-adv-x="657" d="M92 -313h88q59 0 87 41t28 157v340q0 117 47 197t125 106q-41 12 -73 43t-54.5 71t-33.5 87t-11 94v346q0 111 -24.5 154t-86.5 43h-92v109h135q184 0 185 -234v-371q0 -55 12 -105t32.5 -88t49.5 -62.5t59 -28.5v-109q-84 -45 -118.5 -116.5t-34.5 -182.5v-364 q0 -236 -185 -236h-135v109z" />
<glyph unicode="~" horiz-adv-x="1073" d="M76 684q37 72 95 124t151 54q53 0 114.5 -20.5t120.5 -48.5q59 -27 114.5 -49.5t96.5 -22.5q31 0 56.5 13.5t47 33.5t39.5 47l37 53l49 -80q-20 -33 -43.5 -64.5t-51.5 -56t-60.5 -40t-75.5 -15.5q-53 0 -100.5 20.5t-100.5 45.5t-110.5 50.5t-135.5 25.5 q-70 0 -114.5 -44t-79.5 -106z" />
<glyph unicode="&#xa1;" horiz-adv-x="354" d="M76 1407q0 41 30.5 66.5t69.5 25.5t71 -25.5t32 -66.5t-32 -66.5t-71 -25.5t-69.5 25.5t-30.5 66.5zM96 0l39 1227h82l41 -1227h-162z" />
<glyph unicode="&#xa2;" horiz-adv-x="1101" d="M82 721q0 111 29.5 210t87 175t143.5 124t199 56v189h90v-187q78 -4 147.5 -30.5t122.5 -73.5t87 -112.5t44 -147.5h-127q-18 123 -102 192.5t-207 69.5q-102 0 -175 -39t-119 -103.5t-67.5 -148.5t-21.5 -174q0 -84 22.5 -163t67.5 -138.5t113.5 -95t161.5 -35.5 q66 0 123 21.5t101 59.5t70.5 92t32.5 122h127q-18 -174 -126.5 -276.5t-274.5 -119.5v-188h-90v188q-109 6 -195 50.5t-144.5 116t-89 166t-30.5 200.5z" />
<glyph unicode="&#xa3;" horiz-adv-x="1124" d="M51 53q45 37 89 80t77 92t53.5 105.5t20.5 118.5q0 55 -12.5 116.5t-40.5 110.5h-177v96h138q-18 37 -40 76t-40.5 81t-30.5 84t-12 83q0 102 41 178t108.5 125t154.5 73.5t179 24.5q119 0 214 -35t158.5 -101.5t94.5 -161.5t23 -214h-129q8 88 -12.5 162t-66.5 127 t-116 82.5t-162 29.5q-68 0 -131 -16t-112.5 -51t-78 -89t-28.5 -130q0 -43 13.5 -85t34 -84t43 -82t40.5 -77h299v-96h-268q29 -51 38 -107.5t9 -113.5q0 -106 -50 -194.5t-130 -154.5q41 29 87 44.5t95 15.5t95 -14.5t92 -31t92.5 -30.5t91.5 -14t82.5 13t70.5 37 t61.5 52.5t57.5 59.5l61 -95q-72 -80 -152.5 -129t-191.5 -49q-47 0 -92 12.5t-90 29t-89 29.5t-89 17q-88 6 -161 -14.5t-142 -73.5z" />
<glyph unicode="&#xa4;" horiz-adv-x="1171" d="M76 700q0 92 31.5 177.5t91.5 150.5l-119 117l61 59l117 -117q66 59 151 91t177 32t176 -31.5t149 -91.5l117 117l62 -59l-119 -117q59 -66 92 -150.5t33 -177.5q0 -90 -33 -176t-92 -151l119 -117l-60 -61l-119 118q-66 -59 -149.5 -89.5t-175.5 -33.5q-92 0 -176 31 t-152 92l-119 -118l-59 61l119 117q-59 66 -91 150.5t-32 176.5zM180 700q0 -86 33 -159.5t88 -128t129 -86t156 -31.5t154.5 30.5t128 86t88 129t32.5 159.5h2q0 86 -32.5 160t-88 129t-129 86t-155.5 31t-156 -31t-129 -86t-88 -129t-33 -160z" />
<glyph unicode="&#xa5;" d="M111 1141v334h143v-293q0 -80 13.5 -144.5t47 -111.5t89 -73t139.5 -26t140 26t89 73t46 111.5t13 144.5v293h144v-334q0 -193 -91 -300.5t-270 -123.5v-170h304v-92h-304v-174h304v-93h-304v-188h-143v188h-303v93h303v174h-303v92h303v170q-180 16 -270 123.5 t-90 300.5z" />
<glyph unicode="&#xa6;" horiz-adv-x="329" d="M111 0v555h108v-555h-108zM111 920v555h108v-555h-108z" />
<glyph unicode="&#xa7;" horiz-adv-x="1128" d="M39 555q0 104 47 181t133 130q-92 47 -136 115t-44 172q0 98 46 165.5t117.5 111t159 61.5t170.5 18q104 0 197.5 -21.5t164.5 -70.5t113 -128t46 -193h-140q-2 84 -31.5 144t-80.5 99t-119 57.5t-147 18.5q-59 0 -122 -13t-113 -42t-83 -78t-33 -119q0 -88 55.5 -140 t134.5 -83t166 -48.5t150 -33.5q74 -20 145.5 -45t128 -64.5t91.5 -100t35 -150.5q0 -104 -47.5 -181t-133.5 -131q92 -47 136.5 -114.5t44.5 -171.5q0 -98 -46.5 -166t-118 -111t-158.5 -61.5t-171 -18.5q-104 0 -197.5 21.5t-164 71t-113.5 128t-45 193.5h139 q2 -84 31.5 -144.5t81 -99.5t119 -57t147.5 -18q59 0 120.5 13t113 41.5t83 77t31.5 119.5q0 59 -25.5 101.5t-67.5 73t-95.5 50t-109.5 34t-110.5 24.5t-97.5 23q-74 20 -144.5 44.5t-126.5 64.5t-91 100.5t-35 150.5zM184 573q0 -80 38 -130t95.5 -79.5t126 -47 t129.5 -31.5q47 -12 92.5 -22.5t92.5 -22.5q80 31 132 89t52 150q0 80 -38 129t-95 80t-126 47.5t-130 32.5q-45 10 -90 21.5t-92 23.5q-80 -31 -133.5 -89.5t-53.5 -150.5z" />
<glyph unicode="&#xa8;" horiz-adv-x="0" d="M289 1264q0 41 30.5 66.5t69.5 25.5t69.5 -25.5t30.5 -66.5t-30.5 -67t-69.5 -26t-69.5 26t-30.5 67zM662 1264q0 41 30.5 66.5t71.5 25.5q39 0 69.5 -25.5t30.5 -66.5t-30.5 -67t-69.5 -26q-41 0 -71.5 26t-30.5 67z" />
<glyph unicode="&#xa9;" horiz-adv-x="1683" d="M76 737q0 160 60.5 299.5t163.5 242.5t242.5 163.5t299.5 60.5t299 -60.5t242.5 -163.5t164 -242.5t60.5 -299.5t-60.5 -299t-164 -242.5t-243 -164t-298.5 -60.5q-160 0 -299.5 60.5t-242.5 164t-163.5 242.5t-60.5 299zM170 737q0 -139 52 -262t143.5 -215t214 -145.5 t262.5 -53.5q139 0 262 53.5t214 145.5t143 215t52 262t-52 262t-143 215.5t-214 145.5t-262 53t-262 -53t-214.5 -145.5t-143.5 -215.5t-52 -262zM420 727q0 98 29.5 182t86 145.5t137.5 96.5t183 35q72 0 135.5 -20.5t112.5 -60.5t82 -98.5t45 -134.5h-80 q-18 115 -101 172.5t-192 57.5q-84 0 -149.5 -27.5t-109.5 -78t-67.5 -118t-23.5 -147.5t24.5 -149.5t70.5 -120.5t110.5 -81t146.5 -30q100 0 181 60.5t108 177.5h82h2q-31 -147 -131.5 -234.5t-239.5 -87.5q-100 0 -182 36t-139.5 97.5t-89 145.5t-31.5 182z" />
<glyph unicode="&#xaa;" horiz-adv-x="798" d="M78 1157q0 70 20.5 132.5t60.5 108.5t98 73.5t136 27.5q57 0 108.5 -20.5t92.5 -63.5v70h92v-635h-92v80q-80 -94 -213 -94q-70 0 -126 25.5t-95 68.5t-60.5 101t-21.5 126zM170 1157q0 -51 14.5 -96t42 -79t69.5 -53.5t97 -19.5q39 0 76 11.5t64.5 33t44 53t16.5 70.5 v201q0 31 -17.5 57.5t-45 47t-60.5 31.5t-65 11q-66 0 -111 -22.5t-72.5 -60t-40 -86t-12.5 -99.5z" />
<glyph unicode="&#xab;" horiz-adv-x="669" d="M92 680v115l242 280v-133l-168 -205l168 -202v-136zM336 680v115l242 280v-133l-168 -205l168 -202v-136z" />
<glyph unicode="&#xac;" horiz-adv-x="354" d="M0 614v91l111 94v676h131v-572l112 94v-90l-110 -94v-813h-133v709z" />
<glyph unicode="&#xad;" horiz-adv-x="614" d="M92 492v114h430v-114h-430z" />
<glyph unicode="&#xae;" horiz-adv-x="933" d="M76 1116q0 80 30.5 149.5t84 122t124 82t152.5 29.5q80 0 151.5 -29.5t125 -82t84 -122t30.5 -149.5t-30.5 -149.5t-84 -121.5t-125 -82t-151.5 -30q-82 0 -152.5 30t-124 82t-84 121.5t-30.5 149.5zM137 1116q0 -68 25.5 -126t71 -102t105.5 -69.5t128 -25.5t128 25.5 t104 69.5t70 102.5t26 125.5q0 68 -26 126t-70 102.5t-104 70t-128 25.5t-128 -25.5t-105.5 -70t-71 -102.5t-25.5 -126zM324 893v434h153q160 0 160 -125q0 -53 -31 -80.5t-76 -34.5l125 -194h-63l-117 188q-23 -2 -52.5 -1t-43.5 1v-188h-55zM377 1128h92q41 0 77 13.5 t36 64.5q0 47 -32 60.5t-75 13.5h-98v-152z" />
<glyph unicode="&#xaf;" horiz-adv-x="0" d="M311 1241v78h531v-78h-531z" />
<glyph unicode="&#xb0;" horiz-adv-x="743" d="M76 1202q0 61 22.5 115.5t62.5 94.5t94 63.5t116 23.5q63 0 117.5 -23.5t94.5 -63.5t62.5 -94t22.5 -116q0 -61 -22.5 -116.5t-62.5 -95.5t-93.5 -63.5t-116.5 -23.5t-117.5 22.5t-94.5 62.5t-62.5 95.5t-22.5 118.5zM145 1202q0 -49 18.5 -91t49.5 -71.5t72 -47 t86 -17.5q98 0 161.5 65.5t63.5 161.5h2q0 45 -17.5 86t-47 72t-70.5 49t-90 18q-47 0 -88 -18t-72 -49t-49.5 -72t-18.5 -86z" />
<glyph unicode="&#xb1;" horiz-adv-x="1216" d="M92 219v109h1032v-109h-1032zM92 801v108h461v346h111v-346h460v-108h-460v-346h-109v346h-463z" />
<glyph unicode="&#xb2;" horiz-adv-x="698" d="M61 674q-2 61 23 110.5t63.5 90t87 76.5t97.5 67q37 25 71.5 51.5t62.5 56t44 62.5t16 69q0 72 -48 117t-124 45q-102 0 -145 -65.5t-41 -163.5h-92q-2 141 69.5 225t208.5 84q53 0 102.5 -15.5t86.5 -45t58.5 -72.5t21.5 -100q0 -61 -28 -110.5t-70 -91.5t-93 -79 t-99 -74t-86 -73.5t-54 -79.5h319q53 0 63.5 20.5t10.5 55.5l76 -31q0 -57 -28 -93t-102 -36h-471z" />
<glyph unicode="&#xb3;" horiz-adv-x="716" d="M55 967h92q-8 -111 49.5 -168.5t161.5 -57.5q78 0 135.5 46.5t57.5 123.5q0 78 -51 118t-129 40h-35v74h35q70 0 120 34.5t50 104.5t-55.5 103.5t-123.5 33.5q-92 0 -145 -51t-49 -149h-92q0 139 78.5 209.5t210.5 70.5q45 0 93 -12t86 -38t62.5 -64.5t24.5 -92.5 q0 -57 -29 -108t-86 -74q66 -23 98.5 -80t32.5 -123q0 -59 -24.5 -104t-64.5 -77t-91 -48t-107 -16q-68 0 -127 19t-100 57t-62.5 95.5t-15.5 133.5z" />
<glyph unicode="&#xb4;" horiz-adv-x="0" d="M373 1159l254 297h151l-311 -297h-94z" />
<glyph unicode="&#xb5;" horiz-adv-x="1097" d="M111 -422v1477h131v-658q0 -139 69.5 -225t214.5 -86q82 0 143.5 32t102.5 84t61.5 120.5t20.5 144.5v588h133v-1055h-133v223q-35 -117 -123 -177t-205 -64q-98 -4 -169.5 31.5t-112.5 101.5v-537h-133z" />
<glyph unicode="&#xb6;" horiz-adv-x="1034" d="M76 1081q0 201 127 297.5t342 96.5h379v-1897h-101v1813h-192v-1813h-101v1124q-104 0 -188 30t-143.5 80t-91 119.5t-31.5 149.5z" />
<glyph unicode="&#xb7;" horiz-adv-x="354" d="M76 737q0 41 30.5 66.5t69.5 25.5t71 -25.5t32 -66.5t-32 -66.5t-71 -25.5t-69.5 25.5t-30.5 66.5z" />
<glyph unicode="&#xb8;" horiz-adv-x="0" d="M369 -360l24 53q39 -12 77 -23.5t79 -11.5q27 0 52.5 5t47 16.5t34.5 31t13 47.5q0 41 -37.5 60.5t-68.5 19.5q-59 0 -103 -24l-36 26l116 160h60l-84 -119q16 4 31.5 8.5t41.5 4.5q66 0 117 -32t51 -104q0 -47 -18 -77.5t-49 -48t-71 -24.5t-81 -7q-59 0 -107 13.5 t-89 25.5z" />
<glyph unicode="&#xb9;" horiz-adv-x="448" d="M76 1343q0 53 26.5 92.5t106.5 39.5h129v-811h-100v722h-15q-51 0 -60 -20t-9 -55z" />
<glyph unicode="&#xba;" horiz-adv-x="788" d="M76 1167q0 66 20.5 125.5t60.5 105.5t99 73.5t139 27.5q78 0 137.5 -27.5t99.5 -73.5t60.5 -105.5t20.5 -125.5t-20.5 -126t-60.5 -106t-99.5 -73.5t-139.5 -27.5q-78 0 -137 27.5t-99 73.5t-60.5 106t-20.5 126zM168 1167q0 -47 14.5 -94t43 -84t70.5 -59.5t99 -22.5 q55 0 97.5 22.5t71 59.5t43 84t14.5 94t-14.5 93.5t-43 82t-70.5 58t-98 22.5q-57 0 -99 -22.5t-70.5 -58t-43 -82t-14.5 -93.5z" />
<glyph unicode="&#xbb;" horiz-adv-x="669" d="M92 399v133l168 205l-168 203v135l242 -280v-115zM336 399v133l168 205l-168 203v135l242 -280v-115z" />
<glyph unicode="&#xbc;" horiz-adv-x="1273" d="M76 1343q0 53 26.5 92.5t106.5 39.5h129v-811h-100v722h-15q-51 0 -60 -20t-9 -55zM86 0l895 1475h92l-895 -1475h-92zM557 223v84l383 504h94v-504h21q49 0 58 20.5t9 55.5l76 -31q0 -53 -26.5 -91t-102.5 -38h-35v-223h-98v223h-379zM647 307h289v389z" />
<glyph unicode="&#xbd;" horiz-adv-x="1382" d="M76 1343q0 53 26.5 92.5t106.5 39.5h129v-811h-100v722h-15q-51 0 -60 -20t-9 -55zM86 0l895 1475h92l-895 -1475h-92zM745 0q-2 59 23 108.5t63.5 91.5t88 76.5t96.5 65.5q37 25 71.5 52.5t62.5 57t44 62.5t16 70q0 72 -48 115.5t-124 43.5q-102 0 -145 -65.5 t-41 -163.5h-92q-2 143 69.5 227t208.5 84q53 0 102.5 -15t86.5 -45t58.5 -74t21.5 -101q0 -90 -58.5 -156.5t-133.5 -123t-144.5 -110t-93.5 -116.5h319q53 0 63.5 20.5t10.5 55.5l76 -31q0 -59 -28 -94t-101 -35h-472z" />
<glyph unicode="&#xbe;" horiz-adv-x="1495" d="M55 967h92q-8 -111 49.5 -168.5t161.5 -57.5q78 0 135.5 46.5t57.5 123.5q0 78 -51 118t-129 40h-35v74h35q70 0 120 34.5t50 104.5t-55.5 103.5t-123.5 33.5q-92 0 -145 -51t-49 -149h-92q0 139 78.5 209.5t210.5 70.5q45 0 93 -12t86 -38t62.5 -64.5t24.5 -92.5 q0 -57 -29 -108t-86 -74q66 -23 98.5 -80t32.5 -123q0 -59 -24.5 -104t-64.5 -77t-91 -48t-107 -16q-68 0 -127 19t-100 57t-62.5 95.5t-15.5 133.5zM307 0l893 1475h92l-895 -1475h-90zM778 223v84l383 504h92v-504h21q49 0 59 20.5t10 55.5l76 -31q0 -53 -26.5 -91 t-104.5 -38h-35v-223h-96v223h-379zM866 307h291v389z" />
<glyph unicode="&#xbf;" horiz-adv-x="1067" d="M76 336q0 82 22.5 139t56 99t71.5 73t69 55q51 43 87 80t56.5 78t29.5 88t9 113v188h125v-186q0 -59 -7 -113.5t-27.5 -104.5t-57.5 -99.5t-94 -98.5q-16 -12 -49 -35.5t-67 -60.5t-59.5 -88t-25.5 -119q0 -123 85 -187.5t218 -64.5q86 0 149.5 27.5t106.5 79t62.5 120 t15.5 152.5h137q2 -104 -27.5 -194.5t-89 -157t-149.5 -105.5t-209 -39q-100 0 -181 27t-138.5 75t-88 114.5t-30.5 144.5zM438 1405q0 41 31 66.5t70 25.5t69.5 -25.5t30.5 -66.5t-30.5 -66.5t-69.5 -25.5t-70 25.5t-31 66.5z" />
<glyph unicode="&#xc0;" d="M111 0v1077q0 211 109.5 321.5t322.5 110.5q215 0 323.5 -110.5t108.5 -319.5v-1079h-144v678h-577v-678h-143zM254 797h577v239q0 80 -13 144.5t-47 111.5t-89 73t-139 26t-140.5 -26t-89 -73t-46 -111.5t-13.5 -144.5v-239zM365 1864h149l244 -297h-92z" />
<glyph unicode="&#xc1;" d="M111 0v1077q0 211 109.5 321.5t322.5 110.5q215 0 323.5 -110.5t108.5 -319.5v-1079h-144v678h-577v-678h-143zM254 797h577v239q0 80 -13 144.5t-47 111.5t-89 73t-139 26t-140.5 -26t-89 -73t-46 -111.5t-13.5 -144.5v-239zM326 1567l254 297h151l-311 -297h-94z" />
<glyph unicode="&#xc2;" d="M111 0v1077q0 211 109.5 321.5t322.5 110.5q215 0 323.5 -110.5t108.5 -319.5v-1079h-144v678h-577v-678h-143zM254 797h577v239q0 80 -13 144.5t-47 111.5t-89 73t-139 26t-140.5 -26t-89 -73t-46 -111.5t-13.5 -144.5v-239zM256 1573l236 291h106l238 -289l-107 -2 l-186 229l-181 -229h-106z" />
<glyph unicode="&#xc3;" d="M111 0v1077q0 211 109.5 321.5t322.5 110.5q215 0 323.5 -110.5t108.5 -319.5v-1079h-144v678h-577v-678h-143zM254 797h577v239q0 80 -13 144.5t-47 111.5t-89 73t-139 26t-140.5 -26t-89 -73t-46 -111.5t-13.5 -144.5v-239zM262 1589q0 33 11.5 67t33 62.5t51 47 t66.5 18.5q39 0 76 -17.5t71.5 -38t66.5 -38t58 -17.5q45 0 71 31t28 76h73q-2 -74 -43 -130.5t-123 -56.5q-41 0 -75.5 17.5t-67.5 37t-65.5 37t-65.5 17.5q-41 0 -66.5 -38t-27.5 -75h-72z" />
<glyph unicode="&#xc4;" d="M111 0v1077q0 211 109.5 321.5t322.5 110.5q215 0 323.5 -110.5t108.5 -319.5v-1079h-144v678h-577v-678h-143zM254 797h577v239q0 80 -13 144.5t-47 111.5t-89 73t-139 26t-140.5 -26t-89 -73t-46 -111.5t-13.5 -144.5v-239zM260 1671q0 41 32 66.5t70 25.5 q39 0 70 -25.5t31 -66.5t-31 -66.5t-70 -25.5t-70.5 25.5t-31.5 66.5zM635 1671q0 41 30.5 66.5t69.5 25.5t70 -25.5t31 -66.5t-31 -66.5t-70 -25.5t-69.5 25.5t-30.5 66.5z" />
<glyph unicode="&#xc5;" d="M111 0v1077q0 211 109.5 321.5t322.5 110.5q215 0 323.5 -110.5t108.5 -319.5v-1079h-144v678h-577v-678h-143zM254 797h577v239q0 80 -13 144.5t-47 111.5t-89 73t-139 26t-140.5 -26t-89 -73t-46 -111.5t-13.5 -144.5v-239zM350 1714q0 39 15.5 74t42 61.5t61.5 42 t74 15.5t73.5 -15.5t61.5 -42t42 -61.5t15 -74q0 -41 -15 -75.5t-41 -61.5t-61.5 -42t-74.5 -15t-74 15t-61.5 42t-42 61.5t-15.5 75.5zM412 1714q0 -53 38.5 -93t92.5 -40q53 0 92 40t39 93t-39 92t-92 39t-92 -39t-39 -92z" />
<glyph unicode="&#xc6;" horiz-adv-x="1806" d="M111 0v1077q0 211 109.5 321.5t322.5 110.5q252 0 352 -163v129h807v-125h-727v-553h667v-119h-667v-553h739v-125h-883v678h-577v-678h-143zM254 797h577v239q0 80 -13 144.5t-47 111.5t-89 73t-139 26t-140.5 -26t-89 -73t-46 -111.5t-13.5 -144.5v-239z" />
<glyph unicode="&#xc7;" horiz-adv-x="1468" d="M76 727q0 160 46 302t135 248.5t219 169t300 62.5q109 0 216.5 -34.5t194.5 -99t143 -157t63 -208.5h-140q-10 88 -55 157.5t-111.5 118.5t-148.5 76t-164 27q-139 0 -242.5 -56.5t-173 -148.5t-104.5 -211t-35 -244q0 -121 34 -236.5t100.5 -205.5t167 -145.5 t233.5 -55.5q113 0 198.5 37t147 102.5t99.5 154.5t54 193h140q-12 -129 -59.5 -238.5t-124 -189t-183 -127t-238.5 -53.5l-59 -84q16 4 31.5 8.5t42.5 4.5q66 0 116 -32t50 -104q0 -47 -18.5 -77.5t-49.5 -48t-69.5 -24.5t-79.5 -7q-59 0 -107.5 13t-89.5 26l25 53 q37 -12 75.5 -23.5t79.5 -11.5q27 0 52.5 5t47 16.5t35 31t13.5 47.5q0 41 -38 60.5t-69 19.5q-59 0 -102 -24l-37 26l90 125q-156 6 -277.5 69.5t-204.5 168t-126 239.5t-43 285z" />
<glyph unicode="&#xc8;" d="M111 0v1475h870v-125h-727v-553h670v-119h-670v-553h739v-125h-882zM330 1864h151l244 -297h-94z" />
<glyph unicode="&#xc9;" horiz-adv-x="1120" d="M111 0v1475h870v-125h-727v-553h670v-119h-670v-553h739v-125h-882zM426 1567l252 297h153l-313 -297h-92z" />
<glyph unicode="&#xca;" d="M111 0v1475h870v-125h-727v-553h670v-119h-670v-553h739v-125h-882zM258 1573l236 291h106l238 -289l-107 -2l-186 229l-180 -229h-107z" />
<glyph unicode="&#xcb;" d="M111 0v1475h870v-125h-727v-553h670v-119h-670v-553h739v-125h-882zM258 1671q0 41 30.5 66.5t69.5 25.5t70 -25.5t31 -66.5t-31 -66.5t-70 -25.5t-69.5 25.5t-30.5 66.5zM631 1671q0 41 30.5 66.5t69.5 25.5q41 0 72 -25.5t31 -66.5t-31 -66.5t-72 -25.5 q-39 0 -69.5 25.5t-30.5 66.5z" />
<glyph unicode="&#xcc;" horiz-adv-x="364" d="M-29 1864h152l244 -297h-95zM111 0v1475h143v-1475h-143z" />
<glyph unicode="&#xcd;" horiz-adv-x="364" d="M-20 1567l253 297h152l-311 -297h-94zM111 0v1475h143v-1475h-143z" />
<glyph unicode="&#xce;" horiz-adv-x="364" d="M-106 1573l235 291h107l239 -289l-106 -2l-189 229l-180 -229h-106zM111 0v1475h143v-1475h-143z" />
<glyph unicode="&#xcf;" horiz-adv-x="364" d="M-100 1671q0 41 30.5 66.5t69.5 25.5t69.5 -25.5t30.5 -66.5t-30.5 -66.5t-69.5 -25.5t-69.5 25.5t-30.5 66.5zM111 0v1475h143v-1475h-143zM272 1671q0 41 31 66.5t70 25.5q41 0 71.5 -25.5t30.5 -66.5t-30.5 -66.5t-71.5 -25.5q-39 0 -70 25.5t-31 66.5z" />
<glyph unicode="&#xd1;" d="M111 0v1079q0 211 109.5 320.5t322.5 109.5q215 0 323.5 -110.5t108.5 -319.5v-1079h-144v1036q0 80 -13 144.5t-47 111.5t-89 73t-139 26t-140.5 -26t-89 -73t-46 -111.5t-13.5 -144.5v-1036h-143zM287 1589q0 33 11 67t32.5 62.5t51.5 47t67 18.5q39 0 75.5 -17.5 t71.5 -38t66.5 -38t58.5 -17.5q45 0 69.5 31t28.5 76h74q-2 -74 -43 -130.5t-123 -56.5q-41 0 -77 17.5t-68.5 37t-64.5 37t-64 17.5q-41 0 -67 -38t-28 -75h-71z" />
<glyph unicode="&#xd2;" horiz-adv-x="1533" d="M76 737q0 156 45 296.5t133 246.5t217 167.5t295 61.5t295 -61.5t217 -167.5t134 -246.5t46 -296.5q0 -158 -46 -297t-134 -245.5t-217 -168t-295 -61.5t-295 61.5t-217 168t-133 245.5t-45 297zM219 737q0 -127 34 -243.5t101.5 -207.5t170 -145.5t241.5 -54.5 t241.5 54.5t170 145.5t101.5 207.5t34 243.5h2q0 125 -34 243t-101.5 209t-171 145.5t-242.5 54.5t-241.5 -54.5t-170 -145.5t-101.5 -209t-34 -243zM496 1864h149l244 -297h-92z" />
<glyph unicode="&#xd3;" horiz-adv-x="1533" d="M76 737q0 156 45 296.5t133 246.5t217 167.5t295 61.5t295 -61.5t217 -167.5t134 -246.5t46 -296.5q0 -158 -46 -297t-134 -245.5t-217 -168t-295 -61.5t-295 61.5t-217 168t-133 245.5t-45 297zM219 737q0 -127 34 -243.5t101.5 -207.5t170 -145.5t241.5 -54.5 t241.5 54.5t170 145.5t101.5 207.5t34 243.5h2q0 125 -34 243t-101.5 209t-171 145.5t-242.5 54.5t-241.5 -54.5t-170 -145.5t-101.5 -209t-34 -243zM600 1567l254 297h152l-312 -297h-94z" />
<glyph unicode="&#xd4;" horiz-adv-x="1533" d="M76 737q0 156 45 296.5t133 246.5t217 167.5t295 61.5t295 -61.5t217 -167.5t134 -246.5t46 -296.5q0 -158 -46 -297t-134 -245.5t-217 -168t-295 -61.5t-295 61.5t-217 168t-133 245.5t-45 297zM219 737q0 -127 34 -243.5t101.5 -207.5t170 -145.5t241.5 -54.5 t241.5 54.5t170 145.5t101.5 207.5t34 243.5h2q0 125 -34 243t-101.5 209t-171 145.5t-242.5 54.5t-241.5 -54.5t-170 -145.5t-101.5 -209t-34 -243zM469 1573l236 291h106l238 -289l-107 -2l-186 229l-181 -229h-106z" />
<glyph unicode="&#xd5;" horiz-adv-x="1533" d="M76 737q0 156 45 296.5t133 246.5t217 167.5t295 61.5t295 -61.5t217 -167.5t134 -246.5t46 -296.5q0 -158 -46 -297t-134 -245.5t-217 -168t-295 -61.5t-295 61.5t-217 168t-133 245.5t-45 297zM219 737q0 -127 34 -243.5t101.5 -207.5t170 -145.5t241.5 -54.5 t241.5 54.5t170 145.5t101.5 207.5t34 243.5h2q0 125 -34 243t-101.5 209t-171 145.5t-242.5 54.5t-241.5 -54.5t-170 -145.5t-101.5 -209t-34 -243zM481 1589q0 33 11.5 67t33 62.5t51 47t66.5 18.5q39 0 76 -17.5t71.5 -38t65.5 -38t59 -17.5q43 0 69 31t30 76h73h-2 q0 -74 -40.5 -130.5t-122.5 -56.5q-41 0 -77 17.5t-69 37t-64.5 37t-64.5 17.5q-41 0 -67.5 -38t-26.5 -75h-72z" />
<glyph unicode="&#xd6;" horiz-adv-x="1533" d="M76 737q0 156 45 296.5t133 246.5t217 167.5t295 61.5t295 -61.5t217 -167.5t134 -246.5t46 -296.5q0 -158 -46 -297t-134 -245.5t-217 -168t-295 -61.5t-295 61.5t-217 168t-133 245.5t-45 297zM219 737q0 -127 34 -243.5t101.5 -207.5t170 -145.5t241.5 -54.5 t241.5 54.5t170 145.5t101.5 207.5t34 243.5h2q0 125 -34 243t-101.5 209t-171 145.5t-242.5 54.5t-241.5 -54.5t-170 -145.5t-101.5 -209t-34 -243zM469 1671q0 41 30.5 66.5t69.5 25.5t70 -25.5t31 -66.5t-31 -66.5t-70 -25.5t-69.5 25.5t-30.5 66.5zM842 1671 q0 41 30.5 66.5t69.5 25.5q41 0 71.5 -25.5t30.5 -66.5t-30.5 -66.5t-71.5 -25.5q-39 0 -69.5 25.5t-30.5 66.5z" />
<glyph unicode="&#xd7;" horiz-adv-x="882" d="M0 375l365 362l-365 365l76 76l362 -367l367 367l78 -76l-367 -365l367 -362l-78 -78l-365 367l-362 -367z" />
<glyph unicode="&#xd8;" horiz-adv-x="1533" d="M76 731q0 160 46 299t134 242.5t216 164t294 60.5q152 0 271.5 -50t207.5 -142l133 147l47 -39l-139 -151q84 -104 128 -239.5t44 -291.5q0 -160 -46 -299t-135 -242.5t-217 -164t-294 -60.5q-152 0 -271.5 50.5t-205.5 142.5l-152 -170l-47 41l158 172q-86 104 -129 239 t-43 291zM219 731q0 -129 32 -236.5t91 -187.5l813 901v-2q-72 82 -170 126t-219 44t-221.5 -45t-173 -129t-112.5 -202.5t-40 -268.5zM379 256q145 -170 387 -170q121 0 222.5 45t173 129t112.5 203t41 268q0 129 -33 235.5t-92 186.5z" />
<glyph unicode="&#xd9;" d="M111 395v1080h143v-1037q0 -80 13.5 -144.5t47 -111.5t89 -72.5t139.5 -25.5t140 25.5t89 72.5t46 111.5t13 144.5v1037h144v-1078q0 -211 -109.5 -321.5t-322.5 -110.5q-215 0 -323.5 110.5t-108.5 319.5zM344 1864h152l243 -297h-94z" />
<glyph unicode="&#xda;" d="M111 395v1080h143v-1037q0 -80 13.5 -144.5t47 -111.5t89 -72.5t139.5 -25.5t140 25.5t89 72.5t46 111.5t13 144.5v1037h144v-1078q0 -211 -109.5 -321.5t-322.5 -110.5q-215 0 -323.5 110.5t-108.5 319.5zM358 1567l254 297h152l-313 -297h-93z" />
<glyph unicode="&#xdb;" d="M111 395v1080h143v-1037q0 -80 13.5 -144.5t47 -111.5t89 -72.5t139.5 -25.5t140 25.5t89 72.5t46 111.5t13 144.5v1037h144v-1078q0 -211 -109.5 -321.5t-322.5 -110.5q-215 0 -323.5 110.5t-108.5 319.5zM250 1573l235 291h107l237 -289l-106 -2l-186 229l-181 -229 h-106z" />
<glyph unicode="&#xdc;" d="M111 395v1080h143v-1037q0 -80 13.5 -144.5t47 -111.5t89 -72.5t139.5 -25.5t140 25.5t89 72.5t46 111.5t13 144.5v1037h144v-1080v2q0 -211 -109.5 -321.5t-322.5 -110.5q-215 0 -323.5 110.5t-108.5 319.5zM268 1671q0 41 31 66.5t70 25.5t69.5 -25.5t30.5 -66.5 t-30.5 -66.5t-69.5 -25.5t-70 25.5t-31 66.5zM641 1671q0 41 30.5 66.5t69.5 25.5t70 -25.5t31 -66.5t-31 -66.5t-70 -25.5t-69.5 25.5t-30.5 66.5z" />
<glyph unicode="&#xdd;" d="M111 1110v365h143v-324q0 -80 13.5 -144.5t47 -111.5t89 -72.5t139.5 -25.5t140 25.5t89 72.5t46 111.5t13 144.5v324h144v-365q0 -193 -91 -300.5t-270 -123.5v-686h-143v686q-180 16 -270 123.5t-90 300.5zM416 1599l254 299h151l-311 -299h-94z" />
<glyph unicode="&#xde;" horiz-adv-x="1087" d="M111 0v1475h143v-234h291q115 0 203 -30.5t146 -87t88 -134.5t30 -172q0 -106 -37 -186t-101.5 -134.5t-155.5 -81t-198 -26.5h-266v-389h-143zM254 506h258q76 0 141.5 18.5t114.5 56t77.5 96t28.5 136.5q0 154 -91 228.5t-265 74.5h-264v-610z" />
<glyph unicode="&#xdf;" horiz-adv-x="1083" d="M111 0v1102q0 190 108.5 294.5t296.5 104.5q80 0 153.5 -23.5t132 -68.5t93.5 -110.5t35 -151.5q0 -123 -58.5 -210t-179.5 -116q80 -8 139.5 -39.5t98.5 -83t58.5 -119t19.5 -143.5q0 -225 -125 -332.5t-346 -107.5q-20 0 -39 1t-39 3v109q14 -2 28.5 -3.5t30.5 -1.5 q172 0 265.5 83t93.5 259q0 98 -31 162t-85 99.5t-127 49t-157 13.5h-18v86h16q68 0 128.5 14.5t104.5 47t70.5 85t26.5 127.5q0 61 -22.5 110.5t-61.5 82.5t-91 50.5t-112 17.5q-135 0 -204.5 -75t-69.5 -210v-1106h-133z" />
<glyph unicode="&#xe0;" horiz-adv-x="1177" d="M76 510q0 117 32.5 221.5t97 182t161 122.5t221.5 45q106 0 199.5 -43t146.5 -129v146h133v-1055h-131v164q-55 -90 -149.5 -139.5t-217.5 -49.5q-115 0 -206 41t-154.5 114t-98 170t-34.5 210zM209 510q0 -88 23.5 -167t71.5 -137.5t119 -92t167 -33.5q66 0 128 20.5 t110.5 58.5t78 92t29.5 124v340q0 55 -29.5 103t-78 83t-106.5 55.5t-114 20.5q-111 0 -187.5 -41t-123.5 -106.5t-67.5 -149.5t-20.5 -170zM367 1456h149l244 -297h-92z" />
<glyph unicode="&#xe1;" horiz-adv-x="1177" d="M76 510q0 117 32.5 221.5t97 182t161 122.5t221.5 45q106 0 199.5 -43t146.5 -129v146h133v-1055h-131v164q-55 -90 -149.5 -139.5t-217.5 -49.5q-115 0 -206 41t-154.5 114t-98 170t-34.5 210zM209 510q0 -88 23.5 -167t71.5 -137.5t119 -92t167 -33.5q66 0 128 20.5 t110.5 58.5t78 92t29.5 124v340q0 55 -29.5 103t-78 83t-106.5 55.5t-114 20.5q-111 0 -187.5 -41t-123.5 -106.5t-67.5 -149.5t-20.5 -170zM389 1159l254 297h152l-312 -297h-94z" />
<glyph unicode="&#xe2;" horiz-adv-x="1177" d="M76 510q0 117 32.5 221.5t97 182t161 122.5t221.5 45q106 0 199.5 -43t146.5 -129v146h133v-1055h-131v164q-55 -90 -149.5 -139.5t-217.5 -49.5q-115 0 -206 41t-154.5 114t-98 170t-34.5 210zM209 510q0 -88 23.5 -167t71.5 -137.5t119 -92t167 -33.5q66 0 128 20.5 t110.5 58.5t78 92t29.5 124v340q0 55 -29.5 103t-78 83t-106.5 55.5t-114 20.5q-111 0 -187.5 -41t-123.5 -106.5t-67.5 -149.5t-20.5 -170zM293 1167l235 289h107l239 -289h-106l-188 228l-181 -228h-106z" />
<glyph unicode="&#xe3;" horiz-adv-x="1177" d="M76 510q0 117 32.5 221.5t97 182t161 122.5t221.5 45q106 0 199.5 -43t146.5 -129v146h133v-1055h-131v164q-55 -90 -149.5 -139.5t-217.5 -49.5q-115 0 -206 41t-154.5 114t-98 170t-34.5 210zM209 510q0 -88 23.5 -167t71.5 -137.5t119 -92t167 -33.5q66 0 128 20.5 t110.5 58.5t78 92t29.5 124v340q0 55 -29.5 103t-78 83t-106.5 55.5t-114 20.5q-111 0 -187.5 -41t-123.5 -106.5t-67.5 -149.5t-20.5 -170zM315 1182q0 33 11.5 67.5t33 62t51 46t66.5 18.5q39 0 76 -17.5t71.5 -38t66.5 -37.5t59 -17q45 0 70.5 30.5t27.5 77.5h74 q-2 -76 -43 -132t-123 -56q-41 0 -76 17.5t-67.5 37t-65.5 36.5t-66 17q-41 0 -66.5 -37.5t-27.5 -74.5h-72z" />
<glyph unicode="&#xe4;" horiz-adv-x="1177" d="M76 510q0 117 32.5 221.5t97 182t161 122.5t221.5 45q106 0 199.5 -43t146.5 -129v146h133v-1055h-131v164q-55 -90 -149.5 -139.5t-217.5 -49.5q-115 0 -206 41t-154.5 114t-98 170t-34.5 210zM209 510q0 -88 23.5 -167t71.5 -137.5t119 -92t167 -33.5q66 0 128 20.5 t110.5 58.5t78 92t29.5 124v340q0 55 -29.5 103t-78 83t-106.5 55.5t-114 20.5q-111 0 -187.5 -41t-123.5 -106.5t-67.5 -149.5t-20.5 -170zM330 1264q0 41 30.5 66.5t69.5 25.5t69.5 -25.5t30.5 -66.5t-30.5 -67t-69.5 -26t-69.5 26t-30.5 67zM702 1264q0 41 31 66.5 t70 25.5q41 0 71.5 -25.5t30.5 -66.5t-30.5 -67t-71.5 -26q-39 0 -70 26t-31 67z" />
<glyph unicode="&#xe5;" horiz-adv-x="1177" d="M76 510q0 117 32.5 221.5t97 182t161 122.5t221.5 45q106 0 199.5 -43t146.5 -129v146h133v-1055h-131v164q-55 -90 -149.5 -139.5t-217.5 -49.5q-115 0 -206 41t-154.5 114t-98 170t-34.5 210zM209 510q0 -88 23.5 -167t71.5 -137.5t119 -92t167 -33.5q66 0 128 20.5 t110.5 58.5t78 92t29.5 124v340q0 55 -29.5 103t-78 83t-106.5 55.5t-114 20.5q-111 0 -187.5 -41t-123.5 -106.5t-67.5 -149.5t-20.5 -170zM401 1376q0 39 15.5 74t42 61.5t61.5 42t74 15.5t73.5 -15.5t61.5 -42t42 -61.5t15 -74t-15 -74.5t-40.5 -62.5t-61.5 -42t-75 -15 t-74 15t-61.5 42t-42 61.5t-15.5 75.5zM463 1376q0 -53 39 -93t92 -40t92 40t39 93t-39 92t-92 39t-92 -39t-39 -92z" />
<glyph unicode="&#xe6;" horiz-adv-x="1961" d="M76 510q0 117 32.5 221.5t97 182t161 122.5t221.5 45q106 0 199.5 -43t146.5 -129v146h106v-230q53 113 153.5 184.5t254.5 71.5q84 0 159.5 -24.5t134 -71.5t96.5 -114.5t48 -155.5l-813 -295q8 -72 36 -133.5t73 -107.5t107.5 -72.5t142.5 -26.5q66 0 123 21.5 t100 59.5t69.5 92t32.5 122h129q-10 -94 -48 -168t-97.5 -125t-139 -79t-171.5 -28q-141 0 -237.5 67t-150.5 171v-213h-106v164q-55 -90 -149.5 -139.5t-217.5 -49.5q-115 0 -206 41t-154.5 114t-98 170t-34.5 210zM209 510q0 -88 23.5 -167t71.5 -137.5t119 -92t167 -33.5 q66 0 128 20.5t109 58.5t77 92t30 124l2 340q0 55 -29.5 103t-78 83t-106.5 55.5t-114 20.5q-111 0 -187.5 -41t-123.5 -106.5t-67.5 -149.5t-20.5 -170zM1069 508l678 248q-27 104 -105.5 162.5t-191.5 58.5q-98 0 -170 -36t-118 -96.5t-68.5 -139t-24.5 -166.5v-31z" />
<glyph unicode="&#xe7;" horiz-adv-x="1101" d="M76 510q0 117 33.5 221.5t98 182t160 122.5t220.5 45q84 0 159.5 -24.5t134 -71.5t96.5 -114.5t48 -155.5h-127q-18 123 -102 192.5t-207 69.5q-102 0 -175 -39t-119 -103.5t-67.5 -148.5t-21.5 -176q0 -84 22.5 -162t67.5 -137t113.5 -95t160.5 -36q68 0 125.5 21.5 t100.5 59.5t69.5 92t32.5 122h127q-10 -90 -45 -162t-90 -123t-130 -80.5t-161 -34.5l-68 -94q16 4 32 8.5t42 4.5q66 0 116 -32t50 -104q0 -47 -18.5 -77.5t-49 -48t-69.5 -24.5t-80 -7q-59 0 -107.5 13t-89.5 26l25 53q37 -12 76 -23.5t80 -11.5q27 0 52 5t46.5 16.5 t35 31t13.5 47.5q0 41 -38 60.5t-68 19.5q-59 0 -103 -24l-37 26l99 135q-109 6 -195 50.5t-145.5 117t-91 167t-31.5 200.5z" />
<glyph unicode="&#xe8;" horiz-adv-x="1073" d="M76 510q0 117 33.5 221.5t98 182t160 122.5t220.5 45q84 0 159.5 -24.5t134 -71.5t96.5 -114.5t48 -155.5l-811 -295q8 -72 36 -133.5t72 -107.5t106.5 -72.5t141.5 -26.5q68 0 125.5 21.5t100.5 59.5t69.5 92t32.5 122h127q-10 -94 -48 -168t-97.5 -125t-139 -79 t-172.5 -28q-115 0 -207 42t-155.5 115t-97 170t-33.5 208zM211 508l676 248q-27 104 -106 162.5t-191 58.5q-98 0 -169 -36t-117 -96.5t-68.5 -139t-24.5 -166.5v-31zM375 1456h149l244 -297h-92z" />
<glyph unicode="&#xe9;" horiz-adv-x="1073" d="M76 510q0 117 33.5 221.5t98 182t160 122.5t220.5 45q84 0 159.5 -24.5t134 -71.5t96.5 -114.5t48 -155.5l-811 -295q8 -72 36 -133.5t72 -107.5t106.5 -72.5t141.5 -26.5q68 0 125.5 21.5t100.5 59.5t69.5 92t32.5 122h127q-10 -94 -48 -168t-97.5 -125t-139 -79 t-172.5 -28q-115 0 -207 42t-155.5 115t-97 170t-33.5 208zM211 508l676 248q-27 104 -106 162.5t-191 58.5q-98 0 -169 -36t-117 -96.5t-68.5 -139t-24.5 -166.5v-31zM383 1159l252 297h153l-313 -297h-92z" />
<glyph unicode="&#xea;" horiz-adv-x="1073" d="M76 510q0 117 33.5 221.5t98 182t160 122.5t220.5 45q84 0 159.5 -24.5t134 -71.5t96.5 -114.5t48 -155.5l-811 -295q8 -72 36 -133.5t72 -107.5t106.5 -72.5t141.5 -26.5q68 0 125.5 21.5t100.5 59.5t69.5 92t32.5 122h127q-10 -94 -48 -168t-97.5 -125t-139 -79 t-172.5 -28q-115 0 -207 42t-155.5 115t-97 170t-33.5 208zM211 508l676 248q-27 104 -106 162.5t-191 58.5q-98 0 -169 -36t-117 -96.5t-68.5 -139t-24.5 -166.5v-31zM301 1167l236 289h106l240 -289h-107l-188 228l-180 -228h-107z" />
<glyph unicode="&#xeb;" horiz-adv-x="1073" d="M76 510q0 117 33.5 221.5t98 182t160 122.5t220.5 45q84 0 159.5 -24.5t134 -71.5t96.5 -114.5t48 -155.5l-811 -295q8 -72 36 -133.5t72 -107.5t106.5 -72.5t141.5 -26.5q68 0 125.5 21.5t100.5 59.5t69.5 92t32.5 122h127q-10 -94 -48 -168t-97.5 -125t-139 -79 t-172.5 -28q-115 0 -207 42t-155.5 115t-97 170t-33.5 208zM211 508l676 248q-27 104 -106 162.5t-191 58.5q-98 0 -169 -36t-117 -96.5t-68.5 -139t-24.5 -166.5v-31zM307 1264q0 41 31 66.5t70 25.5t69.5 -25.5t30.5 -66.5t-31 -67t-69 -26q-39 0 -70 26t-31 67zM680 1264 q0 41 30.5 66.5t69.5 25.5q41 0 72 -25.5t31 -66.5t-31 -67t-72 -26q-39 0 -69.5 26t-30.5 67z" />
<glyph unicode="&#xec;" horiz-adv-x="354" d="M-16 1456h151l244 -297h-94zM111 0v1055h131v-1055h-131z" />
<glyph unicode="&#xed;" horiz-adv-x="354" d="M-12 1159l252 297h153l-313 -297h-92zM111 0v1055h133v-1055h-133z" />
<glyph unicode="&#xee;" horiz-adv-x="354" d="M-109 1167l236 289h106l238 -289h-106l-187 228l-180 -228h-107zM111 0v1055h131v-1055h-131z" />
<glyph unicode="&#xef;" horiz-adv-x="354" d="M-104 1264q0 41 31.5 66.5t70.5 25.5t69.5 -25.5t30.5 -66.5t-30.5 -67t-69.5 -26t-70.5 26t-31.5 67zM111 0v1055h133v-1055h-133zM270 1264q0 41 31 66.5t70 25.5t69.5 -25.5t30.5 -66.5t-30.5 -67t-69.5 -26t-70 26t-31 67z" />
<glyph unicode="&#xf0;" horiz-adv-x="1153" d="M76 506q0 109 32.5 204t95 166.5t151.5 112.5t202 41q86 0 168 -30.5t135 -94.5q-51 96 -133 193.5t-164 167.5l-219 -121l-61 61l209 117q-70 59 -160 107l98 63q39 -20 87 -53t83 -62l215 121l62 -65l-207 -115q88 -80 162.5 -167t129 -183.5t85 -205t30.5 -231.5 q0 -115 -32.5 -216t-96 -177t-157 -120t-216.5 -44q-117 0 -210 41t-157.5 112t-98 168t-33.5 210zM207 508q0 -84 23.5 -162t69.5 -137t114.5 -94t160.5 -35t161 36t115 95t69.5 136t23.5 161t-23.5 160.5t-69.5 136t-114.5 95.5t-158.5 36q-92 0 -162 -35t-116 -94 t-69.5 -137t-23.5 -162z" />
<glyph unicode="&#xf1;" horiz-adv-x="1097" d="M111 0v1055h131v-224q45 125 142 187.5t230 62.5q172 0 272.5 -101t100.5 -273v-707h-133v657q0 139 -69.5 225.5t-213.5 86.5q-84 0 -145 -32t-101 -84t-60.5 -120.5t-20.5 -144.5v-588h-133zM276 1182q0 33 11.5 67.5t33 62t51 46t66.5 18.5q39 0 76 -17.5t72 -38 t66.5 -37.5t60.5 -17q43 0 68.5 30.5t29.5 77.5h72q0 -76 -41 -132t-123 -56q-41 0 -77 17.5t-68.5 37t-64.5 36.5t-65 17q-41 0 -67.5 -37.5t-28.5 -74.5h-72z" />
<glyph unicode="&#xf2;" horiz-adv-x="1153" d="M76 528q0 109 31.5 208.5t94 176t157 122.5t219.5 46q123 0 217 -46t156.5 -122.5t94 -176t31.5 -208.5t-31.5 -209t-95 -176.5t-157 -122t-218.5 -45.5q-123 0 -217 45.5t-156.5 122t-94 176.5t-31.5 209zM207 528q0 -86 22.5 -165.5t68.5 -143t115.5 -101.5t164.5 -38 q92 0 161.5 38t114.5 100.5t67.5 143t22.5 166.5q0 84 -22.5 165t-67.5 143.5t-114.5 101.5t-161.5 39q-94 0 -164 -39t-116 -101.5t-68.5 -143.5t-22.5 -165zM365 1456h149l244 -297h-92z" />
<glyph unicode="&#xf3;" horiz-adv-x="1153" d="M76 528q0 109 31.5 208.5t94 176t157 122.5t219.5 46q123 0 217 -46t156.5 -122.5t94 -176t31.5 -208.5t-31.5 -209t-95 -176.5t-157 -122t-218.5 -45.5q-123 0 -217 45.5t-156.5 122t-94 176.5t-31.5 209zM207 528q0 -86 22.5 -165.5t68.5 -143t115.5 -101.5t164.5 -38 q92 0 161.5 38t114.5 100.5t67.5 143t22.5 166.5q0 84 -22.5 165t-67.5 143.5t-114.5 101.5t-161.5 39q-94 0 -164 -39t-116 -101.5t-68.5 -143.5t-22.5 -165zM408 1159l254 297h151l-311 -297h-94z" />
<glyph unicode="&#xf4;" horiz-adv-x="1153" d="M76 528q0 109 31.5 208.5t94 176t157 122.5t219.5 46q123 0 217 -46t156.5 -122.5t94 -176t31.5 -208.5t-31.5 -209t-95 -176.5t-157 -122t-218.5 -45.5q-123 0 -217 45.5t-156.5 122t-94 176.5t-31.5 209zM207 528q0 -86 22.5 -165.5t68.5 -143t115.5 -101.5t164.5 -38 q92 0 161.5 38t114.5 100.5t67.5 143t22.5 166.5q0 84 -22.5 165t-67.5 143.5t-114.5 101.5t-161.5 39q-94 0 -164 -39t-116 -101.5t-68.5 -143.5t-22.5 -165zM287 1167l235 289h107l237 -289h-106l-187 228l-180 -228h-106z" />
<glyph unicode="&#xf5;" horiz-adv-x="1153" d="M76 528q0 109 31.5 208.5t94 176t157 122.5t219.5 46q123 0 217 -46t156.5 -122.5t94 -176t31.5 -208.5t-31.5 -209t-95 -176.5t-157 -122t-218.5 -45.5q-123 0 -217 45.5t-156.5 122t-94 176.5t-31.5 209zM207 528q0 -86 22.5 -165.5t68.5 -143t115.5 -101.5t164.5 -38 q92 0 161.5 38t114.5 100.5t67.5 143t22.5 166.5q0 84 -22.5 165t-67.5 143.5t-114.5 101.5t-161.5 39q-94 0 -164 -39t-116 -101.5t-68.5 -143.5t-22.5 -165zM272 1182q0 33 11.5 67.5t33 62t51 46t66.5 18.5q39 0 76 -17.5t71.5 -38t66.5 -37.5t59 -17q45 0 70.5 30.5 t27.5 77.5h74q-2 -76 -43 -132t-123 -56q-41 0 -76 17.5t-67.5 37t-65.5 36.5t-66 17q-41 0 -66.5 -37.5t-27.5 -74.5h-72z" />
<glyph unicode="&#xf6;" horiz-adv-x="1153" d="M76 528q0 109 31.5 208.5t94 176t157 122.5t219.5 46q123 0 217 -46t156.5 -122.5t94 -176t31.5 -208.5t-31.5 -209t-95 -176.5t-157 -122t-218.5 -45.5q-123 0 -217 45.5t-156.5 122t-94 176.5t-31.5 209zM207 528q0 -86 22.5 -165.5t68.5 -143t115.5 -101.5t164.5 -38 q92 0 161.5 38t114.5 100.5t67.5 143t22.5 166.5q0 84 -22.5 165t-67.5 143.5t-114.5 101.5t-161.5 39q-94 0 -164 -39t-116 -101.5t-68.5 -143.5t-22.5 -165zM291 1264q0 41 31.5 66.5t70.5 25.5t70 -25.5t31 -66.5t-31 -67t-70 -26t-70.5 26t-31.5 67zM666 1264 q0 41 30.5 66.5t69.5 25.5t69.5 -25.5t30.5 -66.5t-30.5 -67t-69.5 -26t-69.5 26t-30.5 67z" />
<glyph unicode="&#xf7;" horiz-adv-x="1216" d="M92 682v111h1032v-111h-1032zM494 305q0 49 33.5 82t80.5 33t81 -33t34 -82q0 -47 -28.5 -81t-86.5 -34q-55 0 -84.5 34t-29.5 81zM494 1169q0 49 33.5 82t80.5 33q49 0 82 -33.5t33 -81.5q0 -49 -28.5 -81.5t-86.5 -32.5q-53 0 -83.5 32.5t-30.5 81.5z" />
<glyph unicode="&#xf8;" horiz-adv-x="1153" d="M74 33l119 127q-59 74 -88 169t-29 199q0 109 31.5 208.5t94 176t157 122.5t219.5 46q111 0 195.5 -37.5t146.5 -103.5l94 102l41 -38l-99 -103q59 -74 90 -170t31 -203q0 -109 -31.5 -209t-95 -176.5t-157 -122t-218.5 -45.5q-111 0 -197.5 39t-148.5 105l-114 -125z M207 528q0 -74 18.5 -144.5t53.5 -127.5l561 596h2q-45 57 -110.5 91t-153.5 34q-94 0 -164 -39t-116 -101.5t-68.5 -143.5t-22.5 -165zM307 207q45 -59 111.5 -93t159.5 -34q92 0 161.5 38t114.5 100.5t67.5 143t22.5 166.5q0 74 -18.5 144.5t-55.5 130.5z" />
<glyph unicode="&#xf9;" horiz-adv-x="1097" d="M111 348v707h131v-658q0 -139 69.5 -225t214.5 -86q82 0 143.5 32t102.5 84t61.5 120.5t20.5 144.5v588h133v-1055h-133v223q-43 -125 -140.5 -186.5t-230.5 -61.5q-174 0 -273 100.5t-99 272.5zM317 1456h152l244 -297h-95z" />
<glyph unicode="&#xfa;" horiz-adv-x="1097" d="M111 348v707h131v-658q0 -139 69.5 -225t214.5 -86q82 0 143.5 32t102.5 84t61.5 120.5t20.5 144.5v588h133v-1055h-133v223q-43 -125 -140.5 -186.5t-230.5 -61.5q-174 0 -273 100.5t-99 272.5zM360 1159l254 297h152l-311 -297h-95z" />
<glyph unicode="&#xfb;" horiz-adv-x="1097" d="M111 348v707h131v-658q0 -139 69.5 -225t214.5 -86q82 0 143.5 32t102.5 84t61.5 120.5t20.5 144.5v588h133v-1055h-133v223q-43 -125 -140.5 -186.5t-230.5 -61.5q-174 0 -273 100.5t-99 272.5zM258 1167l236 289h106l238 -289h-105l-188 228l-180 -228h-107z" />
<glyph unicode="&#xfc;" horiz-adv-x="1097" d="M111 348v707h131v-658q0 -139 69.5 -225t214.5 -86q82 0 143.5 32t102.5 84t61.5 120.5t20.5 144.5v588h133v-1055h-133v223q-43 -125 -140.5 -186.5t-230.5 -61.5q-174 0 -273 100.5t-99 272.5zM266 1264q0 41 31 66.5t70 25.5t69.5 -25.5t30.5 -66.5t-30.5 -67 t-69.5 -26t-70 26t-31 67zM639 1264q0 41 30.5 66.5t69.5 25.5q41 0 72 -25.5t31 -66.5t-31 -67t-72 -26q-39 0 -69.5 26t-30.5 67z" />
<glyph unicode="&#xfd;" horiz-adv-x="1097" d="M80 -119h131q4 -63 29.5 -110t67.5 -78t94.5 -45.5t111.5 -14.5q168 0 254 91.5t86 255.5v243q-43 -125 -140.5 -186.5t-230.5 -61.5q-174 0 -273 100.5t-99 272.5v707h131v-658q0 -139 69.5 -225t214.5 -86q82 0 143.5 32t102.5 84t61.5 120.5t20.5 144.5v588h133v-1069 v2q0 -100 -26.5 -182t-83 -140.5t-145.5 -90.5t-212 -32q-84 0 -160.5 17.5t-137 57.5t-98.5 104.5t-44 158.5zM385 1192l254 299h152l-314 -299h-92z" />
<glyph unicode="&#xfe;" horiz-adv-x="1177" d="M111 -422v1897h131v-566q55 86 148 129t200 43q125 0 221 -45t160.5 -122.5t97.5 -182t33 -221.5q0 -113 -35 -210t-98.5 -170t-155.5 -114t-205 -41q-123 0 -217 49.5t-147 139.5v-586h-133zM242 375q0 -70 29.5 -124t77.5 -92t110.5 -58.5t128.5 -20.5q94 0 165.5 33.5 t120 92t72 137.5t23.5 167q0 86 -20.5 170t-67.5 149.5t-124 106.5t-188 41q-55 0 -113.5 -20.5t-106.5 -55.5t-77.5 -83t-29.5 -103v-340z" />
<glyph unicode="&#xff;" horiz-adv-x="1097" d="M80 -119h131q4 -63 29.5 -110t67.5 -78t94.5 -45.5t111.5 -14.5q168 0 254 91.5t86 255.5v243q-43 -125 -140.5 -186.5t-230.5 -61.5q-174 0 -273 100.5t-99 272.5v707h131v-658q0 -139 69.5 -225t214.5 -86q82 0 143.5 32t102.5 84t61.5 120.5t20.5 144.5v588h133v-1069 v2q0 -100 -26.5 -182t-83 -140.5t-145.5 -90.5t-212 -32q-84 0 -160.5 17.5t-137 57.5t-98.5 104.5t-44 158.5zM270 1296q0 41 31 67t70 26q41 0 71.5 -26t30.5 -67t-30.5 -66.5t-71.5 -25.5q-39 0 -70 25.5t-31 66.5zM643 1296q0 41 32 67t70 26q39 0 70 -26t31 -67 t-31 -66.5t-70 -25.5t-70.5 25.5t-31.5 66.5z" />
<glyph unicode="&#x152;" horiz-adv-x="2226" d="M76 727q0 160 46 302t135 248.5t219 169t300 62.5q70 0 141.5 -17t138 -49t122 -78t90.5 -103v213h860v-125h-727v-553h670v-119h-670v-553h739v-125h-872v301q-66 -152 -192 -244t-318 -92q-164 0 -290 62.5t-214 167t-133 242.5t-45 290zM219 729q0 -121 34 -236.5 t100.5 -205.5t167 -145.5t233.5 -55.5q113 0 198.5 37t147 102.5t99.5 154.5t54 193v437q-10 88 -55 157.5t-111.5 118.5t-148.5 76t-164 27q-139 0 -242.5 -56.5t-173 -148.5t-104.5 -211t-35 -244z" />
<glyph unicode="&#x153;" horiz-adv-x="1970" d="M76 528q0 109 31.5 208.5t94 176t157 122.5t219.5 46q84 0 154.5 -24.5t124.5 -67.5t94 -101.5t63 -125.5q25 68 63.5 126t94 101t127 66.5t157.5 23.5q84 0 160 -24.5t134 -71.5t96 -114.5t48 -155.5l-811 -295q8 -70 36 -132.5t73 -108.5t106.5 -72.5t141.5 -26.5 q68 0 125 21.5t100 59.5t69.5 92t32.5 122h127q-10 -94 -47 -168t-97 -125t-139 -79t-171 -28q-82 0 -150.5 23.5t-123 64.5t-93.5 97.5t-63 122.5q-47 -131 -157 -218.5t-278 -87.5q-123 0 -217 45.5t-156.5 122t-94 176.5t-31.5 209zM207 528q0 -86 22.5 -165.5t68.5 -143 t115.5 -101.5t164.5 -38q92 0 161.5 38t114.5 100.5t67.5 143t22.5 166.5q0 84 -22.5 165t-67.5 143.5t-114.5 101.5t-161.5 39q-94 0 -164 -39t-116 -101.5t-68.5 -143.5t-22.5 -165zM1079 506l678 248q-29 104 -107.5 162.5t-189.5 58.5q-98 0 -169.5 -36t-118 -96.5 t-69 -139t-24.5 -166.5v-31z" />
<glyph unicode="&#x178;" d="M111 1110v365h143v-324q0 -80 13.5 -144.5t47 -111.5t89 -72.5t139.5 -25.5t140 25.5t89 72.5t46 111.5t13 144.5v324h144v-365q0 -193 -91 -300.5t-270 -123.5v-686h-143v686q-180 16 -270 123.5t-90 300.5zM258 1671q0 41 32 66.5t70 25.5q39 0 70 -25.5t31 -66.5 t-31 -66.5t-70 -25.5t-70.5 25.5t-31.5 66.5zM633 1671q0 41 30.5 66.5t69.5 25.5t70 -25.5t31 -66.5t-31 -66.5t-70 -25.5t-69.5 25.5t-30.5 66.5z" />
<glyph unicode="&#x2c6;" horiz-adv-x="0" d="M287 1167l235 289h107l237 -289h-106l-187 228l-180 -228h-106z" />
<glyph unicode="&#x2dc;" horiz-adv-x="0" d="M274 1182q0 33 11.5 67.5t33 62t51 46t66.5 18.5t74 -17.5t71.5 -38t66.5 -37.5t61 -17q43 0 68.5 30.5t29.5 77.5h72q0 -76 -41 -132t-123 -56q-41 0 -77 17.5t-68.5 37t-64.5 36.5t-65 17q-41 0 -67.5 -37.5t-28.5 -74.5h-70z" />
<glyph unicode="&#x2000;" horiz-adv-x="952" />
<glyph unicode="&#x2001;" horiz-adv-x="1906" />
<glyph unicode="&#x2002;" horiz-adv-x="952" />
<glyph unicode="&#x2003;" horiz-adv-x="1906" />
<glyph unicode="&#x2004;" horiz-adv-x="634" />
<glyph unicode="&#x2005;" horiz-adv-x="475" />
<glyph unicode="&#x2006;" horiz-adv-x="317" />
<glyph unicode="&#x2007;" horiz-adv-x="317" />
<glyph unicode="&#x2008;" horiz-adv-x="237" />
<glyph unicode="&#x2009;" horiz-adv-x="380" />
<glyph unicode="&#x200a;" horiz-adv-x="104" />
<glyph unicode="&#x2010;" horiz-adv-x="614" d="M92 492v114h430v-114h-430z" />
<glyph unicode="&#x2011;" horiz-adv-x="614" d="M92 492v114h430v-114h-430z" />
<glyph unicode="&#x2012;" horiz-adv-x="614" d="M92 492v114h430v-114h-430z" />
<glyph unicode="&#x2013;" horiz-adv-x="1208" d="M92 492v112h1024v-110z" />
<glyph unicode="&#x2014;" horiz-adv-x="2232" d="M92 492v112h2048v-110z" />
<glyph unicode="&#x2018;" horiz-adv-x="364" d="M0 1444l94 55l271 -467l-95 -55z" />
<glyph unicode="&#x2019;" horiz-adv-x="364" d="M0 1032l270 467l95 -55l-271 -467z" />
<glyph unicode="&#x201a;" horiz-adv-x="364" d="M0 -211l270 469l95 -55l-271 -467z" />
<glyph unicode="&#x201c;" horiz-adv-x="600" d="M0 1444l94 55l271 -467l-95 -55zM238 1444l94 55l268 -467l-94 -55z" />
<glyph unicode="&#x201d;" horiz-adv-x="600" d="M0 1032l270 467l95 -55l-271 -467zM238 1032l268 467l94 -55l-268 -467z" />
<glyph unicode="&#x201e;" horiz-adv-x="604" d="M0 -211l270 469l95 -55l-271 -467zM240 -211l270 469l94 -55l-270 -467z" />
<glyph unicode="&#x2022;" horiz-adv-x="608" d="M76 737q0 47 17.5 89t48 73t72.5 48.5t89 17.5t89 -17.5t73 -48.5t49 -73t18 -89t-18 -89t-49 -72.5t-73 -49t-89 -18.5t-89 18.5t-72.5 49t-48 72.5t-17.5 89z" />
<glyph unicode="&#x2026;" horiz-adv-x="2048" d="M242 86q0 41 30.5 66.5t69.5 25.5t69.5 -25.5t30.5 -66.5t-30.5 -66.5t-69.5 -25.5t-69.5 25.5t-30.5 66.5zM924 86q0 41 30.5 66.5t69.5 25.5t69.5 -25.5t30.5 -66.5t-30.5 -66.5t-69.5 -25.5t-69.5 25.5t-30.5 66.5zM1606 86q0 41 30.5 66.5t69.5 25.5t69.5 -25.5 t30.5 -66.5t-30.5 -66.5t-69.5 -25.5t-69.5 25.5t-30.5 66.5z" />
<glyph unicode="&#x202f;" horiz-adv-x="380" />
<glyph unicode="&#x2039;" horiz-adv-x="425" d="M92 680v115l242 280v-133l-168 -205l168 -202v-136z" />
<glyph unicode="&#x203a;" horiz-adv-x="425" d="M92 399v133l168 205l-168 203v135l242 -280v-115z" />
<glyph unicode="&#x205f;" horiz-adv-x="475" />
<glyph unicode="&#x2122;" horiz-adv-x="1701" d="M78 1348q0 53 25.5 90t101.5 37h483v-82h-258v-729h-94v729h-109q-53 0 -66.5 -19.5t-13.5 -54.5zM707 664v589q0 117 61 178.5t182 61.5q141 0 199 -94q57 94 199 94q121 0 182 -61.5t61 -178.5v-589h-92v567q0 86 -31.5 135t-119.5 49q-90 0 -121 -50t-31 -134v-567 h-94v567q0 86 -32 135t-120 49q-90 0 -120.5 -50t-30.5 -134v-567h-92z" />
<glyph unicode="&#xe000;" horiz-adv-x="1055" d="M0 1055h1055v-1055h-1055v1055z" />
<glyph unicode="&#xfb01;" horiz-adv-x="706" d="M0 954v95h111v225q0 70 18 114t48 69.5t70 34.5t83 9q53 0 82.5 -3t58.5 -3v-109q-12 4 -36.5 5.5t-53.5 1.5t-53.5 -4.5t-44 -19.5t-30.5 -45t-11 -83v-186h354v-1055h-131v954h-221v-954h-133v954h-111z" />
<glyph unicode="&#xfb02;" horiz-adv-x="706" d="M0 954v95h111v225q0 70 18 114t48 69.5t70 34.5t83 9q31 0 59.5 -4t56.5 -6q37 0 70 -2q27 -2 51.5 -3t28.5 -1v-1485h-131v1389q-16 2 -39 3t-45 1q-29 0 -53.5 -4.5t-44 -20.5t-30.5 -47t-11 -84v-182h112v-101h-110v-954h-133v954h-111z" />
<glyph unicode="&#xfb03;" horiz-adv-x="1062" d="M785 1417q0 41 30.5 66.5t69.5 25.5t71 -25.5t32 -66.5t-32 -66.5t-71 -25.5t-69.5 25.5t-30.5 66.5zM820 0v1055h131v-1055h-131zM354 954v95h111v225q0 70 18 114t48 69.5t70 34.5t83 9q53 0 82.5 -3t58.5 -3v-109q-12 4 -36.5 5.5t-53.5 1.5t-53.5 -4.5t-44 -20.5 t-30.5 -47t-11 -84v-182h112v-101h-110v-954h-133v954h-111zM0 954v95h111v225q0 70 18 114t48 69.5t70 34.5t83 9q53 0 82.5 -3t58.5 -3v-109q-12 4 -36.5 5.5t-53.5 1.5t-53.5 -4.5t-44 -20.5t-30.5 -47t-11 -84v-182h112v-101h-110v-954h-133v954h-111z" />
<glyph unicode="&#xfb04;" horiz-adv-x="1062" d="M820 0v1475h133v-1475h-133zM354 954v95h111v225q0 70 18 114t48 69.5t70 34.5t83 9q53 0 82.5 -3t58.5 -3v-109q-12 4 -36.5 5.5t-53.5 1.5t-53.5 -4.5t-44 -20.5t-30.5 -47t-11 -84v-182h112v-101h-110v-954h-133v954h-111zM0 954v95h111v225q0 70 18 114t48 69.5 t70 34.5t83 9q53 0 82.5 -3t58.5 -3v-109q-12 4 -36.5 5.5t-53.5 1.5t-53.5 -4.5t-44 -20.5t-30.5 -47t-11 -84v-182h112v-101h-110v-954h-133v954h-111z" />
</font>
</defs>
</svg>
