<?xml version="1.0" standalone="no"?>
<!DOCTYPE svg PUBLIC "-//W3C//DTD SVG 1.1//EN" "http://www.w3.org/Graphics/SVG/1.1/DTD/svg11.dtd" >
<svg xmlns="http://www.w3.org/2000/svg">
<metadata>
This is a custom SVG webfont generated by Font Squirrel.
Copyright   :  Doug Sheets 2011
Designer    : Doug Sheets
Foundry     : Doug Sheets
Foundry URL : httpdougsheetscomcoffeeshophtml
</metadata>
<defs>
<font id="CoffeeShopBoldTrialVersion" horiz-adv-x="1024" >
<font-face units-per-em="2048" ascent="1536" descent="-512" />
<missing-glyph horiz-adv-x="911" />
<glyph unicode=" "  horiz-adv-x="911" />
<glyph unicode="&#x09;" horiz-adv-x="911" />
<glyph unicode="&#xa0;" horiz-adv-x="911" />
<glyph unicode="!" horiz-adv-x="505" d="M102 1434h301l-41 -1094h-219zM139 0v252h221v-252h-221z" />
<glyph unicode="&#x22;" horiz-adv-x="849" d="M96 936l41 252h-41v252h221v-252l-122 -252h-99zM526 936l41 252h-41v252h222v-252l-123 -252h-99z" />
<glyph unicode="#" horiz-adv-x="2060" d="M102 0v1434h301l289 -861v861h301v-1434h-301l-289 860v-860h-301zM1122 0v170h897v-170h-897zM1135 842q0 123 33.5 232.5t92 193.5t139.5 133t177 49t177 -49t140.5 -133t92 -193.5t32.5 -232.5t-32.5 -232.5t-92 -192.5t-140.5 -132t-177 -49t-177 49t-139.5 132 t-92 192.5t-33.5 232.5zM1384 842q0 -82 11.5 -158t35 -134t60.5 -93t86 -35q47 0 84 35t61.5 93t37 134t12.5 158t-12.5 157.5t-37 134t-61.5 93.5t-84 35q-49 0 -86 -35t-60.5 -93.5t-35 -134t-11.5 -157.5z" />
<glyph unicode="$" d="M63 123l64 217q98 -29 176 -46.5t139 -17.5v435q-61 18 -125.5 38.5t-119 57.5t-88 99.5t-33.5 164.5q8 207 102 314.5t264 123.5v168h138v-168q145 -12 329 -73l-63 -217q-53 16 -125 39.5t-141 27.5v-350q59 -16 122.5 -37.5t115.5 -66t86 -117t34 -191.5 q0 -188 -90 -310t-268 -155v-170h-138v158q-166 4 -379 76zM383 1083q0 -37 15.5 -60.5t43.5 -39.5v268q-29 -23 -44 -62.5t-15 -105.5zM580 328q53 55 61 192q0 45 -16.5 75t-44.5 52v-319z" />
<glyph unicode="%" horiz-adv-x="1054" d="M63 1143q0 61 11.5 116.5t35 98.5t59.5 67.5t85 24.5t85 -24.5t59.5 -67.5t34.5 -98.5t11 -116.5t-11 -117.5t-34.5 -98.5t-59.5 -66.5t-85 -24.5t-85 24.5t-59.5 66.5t-35 98.5t-11.5 117.5zM102 0l615 1434h157l-614 -1434h-158zM190 1063q0 -39 6.5 -68.5t19.5 -47 t38 -17.5t38 17.5t18 47t6 68.5t1 80t-1 79t-6 67.5t-18 47t-38 17.5t-38 -17.5t-19.5 -47t-6.5 -67.5v-79v-80zM590 426q0 61 11 116.5t34.5 98.5t59.5 67.5t85 24.5t85 -24.5t59.5 -67.5t35 -98.5t11.5 -116.5t-11.5 -117.5t-35 -98.5t-59.5 -66.5t-85 -24.5t-85 24.5 t-59.5 66.5t-34.5 98.5t-11 117.5zM717 346q0 -39 6 -68.5t19.5 -47t37.5 -17.5q25 0 38 17.5t18.5 47t6.5 68.5t1 80t-1 79t-6.5 67.5t-18.5 47t-38 17.5t-38 -17.5t-19 -47t-6 -67.5v-79v-80z" />
<glyph unicode="&#x26;" />
<glyph unicode="'" horiz-adv-x="425" d="M102 1434h222l-62 -504h-98z" />
<glyph unicode="(" horiz-adv-x="765" d="M102 719q0 209 39 354.5t116 231.5t189.5 116.5t258.5 12.5l-166 -189q-137 -14 -196.5 -154.5t-57.5 -371.5q0 -121 13 -219.5t43 -170t77 -113.5t112 -48l166 -168q-145 -18 -255.5 11.5t-186.5 115.5t-115 232.5t-37 359.5z" />
<glyph unicode=")" horiz-adv-x="761" d="M57 1434q145 18 258 -12.5t190 -116.5t115.5 -231.5t38.5 -354.5q2 -213 -36.5 -359.5t-114.5 -232.5t-187.5 -115.5t-254.5 -11.5l165 168q66 6 113 48t77 113.5t43 170t13 219.5q2 231 -57.5 371.5t-196.5 154.5z" />
<glyph unicode="*" horiz-adv-x="804" d="M100 1421v133l144 -2l-103 103l95 92l98 -102l2 143h133l-2 -143l102 102l93 -94l-105 -101h145v-133h-143l103 -100l-95 -92l-100 100v-141h-133v143l-101 -102l-92 94l101 98z" />
<glyph unicode="+" d="M100 502v178l322 -2l2 323h178l-2 -323h324v-178h-324v-322h-178v322z" />
<glyph unicode="," horiz-adv-x="419" d="M96 0v252h221v-252l-122 -252h-99l41 252h-41z" />
<glyph unicode="-" horiz-adv-x="1343" d="M98 477v252h1143v-252h-1143z" />
<glyph unicode="." horiz-adv-x="421" d="M98 0v252h221v-252h-221z" />
<glyph unicode="/" horiz-adv-x="792" d="M102 0l410 1434h178l-409 -1434h-179z" />
<glyph unicode="0" horiz-adv-x="1361" d="M98 477v252h1143v-252h-1143z" />
<glyph unicode="1" horiz-adv-x="1335" d="M98 477v252h1143v-252h-1143z" />
<glyph unicode="2" horiz-adv-x="1333" d="M98 477v252h1143v-252h-1143z" />
<glyph unicode="3" horiz-adv-x="1327" d="M98 477v252h1143v-252h-1143z" />
<glyph unicode="4" horiz-adv-x="1361" d="M98 477v252h1143v-252h-1143z" />
<glyph unicode="5" horiz-adv-x="1302" d="M98 477v252h1143v-252h-1143z" />
<glyph unicode="6" horiz-adv-x="1292" d="M98 477v252h1143v-252h-1143z" />
<glyph unicode="7" horiz-adv-x="1339" d="M98 477v252h1143v-252h-1143z" />
<glyph unicode="8" horiz-adv-x="1333" d="M98 477v252h1143v-252h-1143z" />
<glyph unicode="9" horiz-adv-x="1327" d="M98 477v252h1143v-252h-1143z" />
<glyph unicode=":" horiz-adv-x="421" d="M98 0v252h221v-252h-221zM98 662v251h221v-251h-221z" />
<glyph unicode=";" horiz-adv-x="421" d="M96 0v252h221v-252l-122 -252h-99l41 252h-41zM98 662v251h221v-251h-221z" />
<glyph unicode="&#x3c;" horiz-adv-x="1189" d="M59 543l1028 528v-1069z" />
<glyph unicode="=" horiz-adv-x="1343" d="M98 272v232h1143v-232h-1143zM98 729v232h1143v-232h-1143z" />
<glyph unicode="&#x3e;" horiz-adv-x="1189" d="M100 2v1069l1028 -528z" />
<glyph unicode="?" horiz-adv-x="811" d="M61 1133q156 51 281 61t214 -25.5t138 -119.5t56 -218q0 -84 -33 -136t-82 -86t-108.5 -53t-112.5 -36v-248h-193v418q53 18 102.5 28.5t88.5 25t61.5 36t22.5 62.5q0 98 -42 133t-102.5 35t-126 -21.5t-110.5 -36.5zM219 0v207h199v-207h-199z" />
<glyph unicode="@" horiz-adv-x="3016" d="M78 477v252h590v-252h-590zM739 0l342 1188h189l346 -1188h-252l-64 252h-256l-53 -252h-252zM1090 438h174l-88 375zM1513 997v189h873v-189h-309v-997h-250v997h-314zM2310 477v252h590v-252h-590z" />
<glyph unicode="A" horiz-adv-x="1140" d="M43 0l414 1434h227l416 -1434h-303l-76 303h-309l-66 -303h-303zM465 528h211l-107 453z" />
<glyph unicode="B" horiz-adv-x="1058" d="M102 0v1434h355q94 0 177 -31t144.5 -85t97 -129t35.5 -163q0 -61 -12 -109.5t-32.5 -84t-44 -61.5t-46.5 -46q23 -16 53.5 -44t59.5 -64.5t48 -85t19 -107.5q0 -88 -35.5 -166t-97 -135t-143.5 -90t-176 -33h-402zM406 227h59q45 2 86 15.5t71.5 37t49 57.5t18.5 79 q0 47 -18.5 86t-49 66.5t-71.5 43t-86 15.5h-59v-400zM406 809h14q45 0 86 14.5t71.5 42t49 66.5t18.5 86q0 45 -18.5 80t-49 58.5t-71.5 36.5t-86 15h-14v-399z" />
<glyph unicode="C" horiz-adv-x="980" d="M61 719q0 252 56.5 412.5t166 239.5t269.5 80h5q158 0 362 -69l-56 -227q-132 40 -227 40h-13q-99 -3 -161 -55.5t-89.5 -156.5t-27.5 -264q0 -170 27.5 -274.5t89.5 -155.5q60 -50 157 -50h4q99 1 240 44l56 -228q-207 -70 -368 -71h-8q-155 0 -262 75q-110 78 -166 240 q-54 156 -55 402v18z" />
<glyph unicode="D" horiz-adv-x="1046" d="M102 0v1434h285h11q135 0 241 -49q111 -50 187.5 -143t117.5 -224t41 -289q0 -160 -41 -294t-117.5 -231.5t-187.5 -150.5t-252 -53h-285zM387 248q8 0 16 -1q72 0 126 35q60 38 99.5 103.5t59 152.5t19.5 183q-4 98 -22.5 186t-56.5 153.5t-98 102.5q-51 32 -119 32 q-11 0 -24 -1v-946z" />
<glyph unicode="E" horiz-adv-x="884" d="M102 0v1434h701v-228h-400v-377h248v-225h-248v-377h400v-227h-701z" />
<glyph unicode="F" horiz-adv-x="864" d="M102 0v1434h701v-226h-397v-379h245v-225h-245v-604h-304z" />
<glyph unicode="G" horiz-adv-x="1118" d="M63 713q0 260 73 422.5t200 240.5q122 75 284 75h13q170 -3 364 -75l-71 -282q-119 90 -221 114q-37 9 -71 9q-60 0 -109 -28q-77 -44 -121 -162t-44 -314q0 -98 10.5 -185.5t44.5 -153t96 -106.5t167 -47h53v285h-139v221h424v-727h-389q-123 0 -226.5 37t-178.5 121 t-117 220t-42 335z" />
<glyph unicode="H" horiz-adv-x="1095" d="M102 0v1434h304v-605h286v605h301v-1434h-301v604h-286v-604h-304z" />
<glyph unicode="I" horiz-adv-x="505" d="M102 0v1434h301v-1434h-301z" />
<glyph unicode="J" horiz-adv-x="729" d="M82 0v225q129 0 185.5 40t56.5 163v1006h301v-1186q0 -94 -43 -144.5t-97 -72.5q-61 -27 -139 -31h-264z" />
<glyph unicode="K" horiz-adv-x="1075" d="M102 0v1434h304v-605q47 113 71.5 174.5t36.5 90t14 32.5l2 4l2 6q2 5 13.5 33.5t36.5 90.5l69 174h299l-295 -686l359 -748h-303q-57 121 -88 186.5t-45.5 96t-16.5 35.5l-2 6l-2 5q-2 5 -16.5 35.5t-46 96t-88.5 186.5v-647h-304z" />
<glyph unicode="L" horiz-adv-x="897" d="M102 0v1434h301v-1207h453v-227h-754z" />
<glyph unicode="M" horiz-adv-x="1452" d="M123 0v1434h379l225 -979l223 979h379v-1434h-303v934l-223 -934h-150l-227 934v-934h-303z" />
<glyph unicode="N" horiz-adv-x="1095" d="M102 0v1434h301l289 -861v861h301v-1434h-301l-289 860v-860h-301z" />
<glyph unicode="O" horiz-adv-x="1153" d="M41 717q0 147 41 279t112.5 233.5t169 161t211.5 59.5q117 0 215.5 -59.5t170 -161t111.5 -233.5t40 -279t-40 -280.5t-111.5 -234t-170 -159.5t-215.5 -59q-115 0 -212 59t-168.5 159.5t-112.5 234t-41 280.5zM344 717q0 -98 13.5 -190.5t42 -162t72.5 -111.5t103 -42 q57 0 102.5 42t74 111.5t44 161.5t15.5 191q0 98 -15.5 190t-44 162t-73.5 112t-103 42q-59 0 -103 -42t-72.5 -112t-42 -162t-13.5 -190z" />
<glyph unicode="P" horiz-adv-x="1005" d="M102 0v1434h287q94 0 192.5 -16.5t179.5 -61.5t132 -125t51 -205q0 -123 -48 -211t-126 -144.5t-178 -82t-205 -25.5v-563h-285zM387 809q51 0 100.5 11t89 36t64.5 65t25 97t-25 93t-64.5 57.5t-89 29.5t-100.5 10v-399z" />
<glyph unicode="Q" horiz-adv-x="1155" d="M43 717q0 147 41 279t112.5 233.5t169 161t212.5 59.5q117 0 215 -59.5t169.5 -161t111.5 -233.5t40 -279q0 -190 -65.5 -353t-178.5 -264l211 -321h-336l-110 209q-14 -2 -28.5 -3t-28.5 -1q-115 0 -212.5 59t-169 159.5t-112.5 234t-41 280.5zM346 717 q0 -98 13.5 -190.5t42 -162t72.5 -111.5t104 -42q57 0 102 42t73.5 111.5t44 161.5t15.5 191q0 98 -15.5 190t-44 162t-73.5 112t-102 42q-59 0 -103.5 -42t-73 -112t-42 -162t-13.5 -190z" />
<glyph unicode="R" horiz-adv-x="1028" d="M102 0v1434h363q94 0 172 -28t135 -80t89 -128t32 -172q0 -31 -10.5 -79t-35 -93t-67.5 -77t-110 -32q76 -14 137 -55q27 -18 51.5 -43.5t44 -61.5t31.5 -83t12 -109v-393h-262v385q0 98 -63.5 158.5t-155.5 60.5h-59v-604h-304zM406 829h81q31 0 58.5 17.5t48 45.5 t33 61.5t12.5 64.5t-12.5 64.5t-33 61t-48 45t-58.5 17.5h-81v-377z" />
<glyph unicode="S" horiz-adv-x="1019" d="M63 59l64 217q121 -35 214 -53q52 -10 96 -10q34 0 62 6q65 14 100.5 69.5t41.5 168.5q0 74 -42 111.5t-104.5 61t-136 43t-136 56.5t-104.5 101.5t-42 177.5q6 162 66.5 263t167.5 145q84 34 195 35q31 0 63 -3q151 -12 341 -76l-63 -217q-37 10 -86 27.5t-100.5 29 t-101.5 12.5h-5q-47 0 -84 -18q-39 -18 -62.5 -62t-23.5 -124q0 -59 41 -87t102.5 -46.5t134 -38t134 -61.5t102.5 -118.5t41 -207.5q0 -147 -56.5 -256t-166.5 -165q-109 -55 -269 -55h-6q-164 0 -377 74z" />
<glyph unicode="T" horiz-adv-x="1015" d="M-20 1206v228h1056v-228h-377v-1206h-303v1206h-376z" />
<glyph unicode="U" horiz-adv-x="1118" d="M102 223v1211h304v-1133q2 -23 10 -39t22.5 -27.5t42.5 -11.5h156q29 0 43 11.5t22 27.5t11 39v1133h303v-1211q-6 -63 -39 -112q-29 -41 -89.5 -76t-174.5 -35h-307q-115 0 -176.5 35t-90.5 76q-35 49 -37 112z" />
<glyph unicode="V" horiz-adv-x="1245" d="M20 1434h375l228 -981l227 981h375l-490 -1434h-225z" />
<glyph unicode="W" horiz-adv-x="1699" d="M20 1434h375l154 -981l188 981h226l188 -981l154 981h374l-374 -1434h-228l-225 987l-229 -987h-228z" />
<glyph unicode="X" horiz-adv-x="1179" d="M59 0l330 778l-328 656h304l227 -469l227 469h299l-325 -656l323 -778h-299l-227 592l-228 -592h-303z" />
<glyph unicode="Y" horiz-adv-x="1204" d="M0 1434h375l227 -613l227 613h375l-452 -852v-582h-301v582z" />
<glyph unicode="Z" horiz-adv-x="1034" d="M102 0v256l590 922h-590v256h830v-256l-543 -922h543v-256h-830z" />
<glyph unicode="[" horiz-adv-x="624" d="M102 -326v1512q0 92 25 143t53 74q35 27 78 31h264v-226q-129 0 -185 -40t-56 -162v-1151q0 -123 56 -163t185 -40v-225h-264q-43 4 -78 30q-29 23 -53.5 73t-24.5 144z" />
<glyph unicode="\" horiz-adv-x="792" d="M102 1434h179l409 -1434h-178z" />
<glyph unicode="]" horiz-adv-x="624" d="M102 -348q129 0 185.5 40t56.5 163v1151q0 123 -56.5 162.5t-185.5 39.5v226h265q43 -4 77 -31q29 -23 53.5 -74t24.5 -143v-1512q0 -94 -24.5 -144t-53.5 -73q-35 -27 -77 -30h-265v225z" />
<glyph unicode="^" horiz-adv-x="673" d="M104 1536l185 252h98l184 -252h-180l-53 131l-53 -131h-181z" />
<glyph unicode="_" horiz-adv-x="1609" d="M98 0v170h1409v-170h-1409z" />
<glyph unicode="`" horiz-adv-x="425" d="M102 1788h181l41 -252h-99z" />
<glyph unicode="a" horiz-adv-x="962" d="M43 0l342 1188h188l347 -1188h-252l-64 252h-256l-53 -252h-252zM393 438h174l-88 375z" />
<glyph unicode="b" horiz-adv-x="849" d="M102 0v1186h293q78 0 146.5 -25.5t120 -69.5t81 -106.5t29.5 -136.5q0 -51 -10 -90t-27.5 -69t-37 -51.5t-38.5 -37.5q18 -14 44 -36.5t49.5 -53.5t40 -71t16.5 -89q0 -74 -29.5 -137t-80 -110.5t-119 -75t-146.5 -27.5h-332zM352 188h49q76 4 131.5 42t55.5 114 q0 78 -55.5 126t-131.5 48h-49v-330zM352 670h13q76 0 131 47t55 125t-55.5 115.5t-130.5 41.5h-13v-329z" />
<glyph unicode="c" horiz-adv-x="833" d="M61 596q0 209 46.5 342t137.5 198.5t223 65.5t304 -57l-47 -187q-110 33 -189 33h-10q-82 -2 -133 -46t-73.5 -130t-22.5 -219q0 -139 22.5 -227t73.5 -129t133 -41t199 37l47 -189q-172 -57 -305 -59h-8q-128 0 -216 62q-91 65 -138 199q-44 128 -44 329v18z" />
<glyph unicode="d" horiz-adv-x="894" d="M102 0v1188h236h11q110 0 198 -40q92 -42 155.5 -119t97.5 -185.5t34 -239.5q0 -133 -34 -243.5t-97.5 -190.5t-155.5 -125t-209 -45h-236zM338 205h8q62 0 110 28q50 31 82.5 85.5t48 127t15.5 152.5q-2 80 -17.5 153.5t-47 128t-80.5 84.5q-43 26 -103 26q-8 0 -16 -1 v-784z" />
<glyph unicode="e" horiz-adv-x="763" d="M102 0v1186h580v-189h-330v-311h205v-186h-205v-312h330v-188h-580z" />
<glyph unicode="f" horiz-adv-x="763" d="M102 0v1186h580v-189h-330v-311h205v-186h-205v-500h-250z" />
<glyph unicode="g" horiz-adv-x="954" d="M61 590q0 215 60.5 351t166.5 201q101 62 234 61h13q141 -3 303 -62l-60 -234q-98 74 -184 95q-31 8 -59 8q-50 0 -91 -24q-63 -38 -100 -136t-37 -260q0 -80 9.5 -152.5t37 -128t78.5 -89.5t137 -38h45v238h-114v182h352v-602h-324q-102 0 -188 30.5t-147.5 100.5 t-96.5 182.5t-35 276.5z" />
<glyph unicode="h" horiz-adv-x="942" d="M102 0v1186h252v-500h236v500h250v-1186h-250v500h-236v-500h-252z" />
<glyph unicode="i" horiz-adv-x="454" d="M102 0v1186h250v-1186h-250z" />
<glyph unicode="j" horiz-adv-x="632" d="M82 0v186q53 0 91 7.5t62.5 26t36 51t11.5 83.5v832h247v-981q0 -78 -35.5 -120t-78.5 -60q-51 -23 -115 -25h-219z" />
<glyph unicode="k" horiz-adv-x="937" d="M102 0v1186h250v-500q51 125 72.5 176t27 64.5t4.5 9.5t4 9t25.5 64.5t71.5 176.5h246l-244 -568l297 -618h-250l-254 535v-535h-250z" />
<glyph unicode="l" horiz-adv-x="765" d="M102 0v1186h250v-998h373v-188h-623z" />
<glyph unicode="m" horiz-adv-x="1243" d="M123 0v1186h313l187 -811l184 811h313v-1186h-250v772l-184 -772h-125l-186 772v-772h-252z" />
<glyph unicode="n" horiz-adv-x="942" d="M102 0v1186h250l238 -713v713h250v-1186h-250l-238 711v-711h-250z" />
<glyph unicode="o" horiz-adv-x="966" d="M41 594q0 123 34 232.5t92 193.5t139 133t177 49t177 -49t140.5 -133t92.5 -193.5t33 -232.5t-33 -232.5t-92.5 -192.5t-140 -132t-177.5 -49q-96 0 -177 49t-139 132t-92 192.5t-34 232.5zM291 594q0 -82 11 -158t34.5 -134t60.5 -93t86 -35q47 0 84 35t61.5 93t37 134 t12.5 158t-12.5 157.5t-37 134t-61.5 93.5t-84 35q-49 0 -86 -35t-60.5 -93.5t-34.5 -134t-11 -157.5z" />
<glyph unicode="p" horiz-adv-x="860" d="M102 0v1186h238q78 0 159 -13.5t147.5 -51.5t109.5 -103.5t43 -169.5q0 -102 -40 -175t-104.5 -119t-147.5 -67.5t-169 -21.5v-465h-236zM338 670q43 0 84 9t72.5 29.5t52 53.5t20.5 80t-20.5 77.5t-52 47t-72.5 23.5t-84 9v-329z" />
<glyph unicode="q" horiz-adv-x="968" d="M41 594q0 123 34 232.5t93 193.5t140 133t177 49q94 0 176 -49t140.5 -133t92.5 -193.5t34 -232.5q0 -156 -54.5 -291t-148.5 -219l176 -266h-276l-93 174q-12 0 -24 -1t-23 -1q-96 0 -177 48t-140 131t-93 192.5t-34 232.5zM291 594q0 -82 11 -157t35.5 -133t61.5 -93 t86 -35t85 35t60.5 93t37 133t12.5 157t-12.5 158.5t-37 134t-60 92.5t-85.5 35q-49 0 -86 -35t-61.5 -92.5t-35.5 -134t-11 -158.5z" />
<glyph unicode="r" horiz-adv-x="882" d="M102 0v1186h301q76 0 141.5 -22.5t111.5 -65.5t73 -105.5t27 -142.5q0 -27 -8.5 -67t-29 -76.5t-56 -63.5t-91.5 -27q63 -10 115 -45q43 -29 79 -87t36 -158v-326h-217v319q0 78 -53.5 129.5t-127.5 51.5h-49v-500h-252zM354 686h68q25 0 47.5 14.5t39.5 38t26.5 51 t9.5 54.5t-9.5 54.5t-26.5 50t-40 36.5t-47 14h-68v-313z" />
<glyph unicode="s" horiz-adv-x="868" d="M61 49l52 182q100 -29 177 -44q44 -9 81 -8q27 0 50 4q54 11 84 57.5t36 140.5q0 59 -35 90t-87 50.5t-112.5 35.5t-113 46t-87 83t-34.5 148q6 135 55 219t138 121q70 29 162 28q25 0 52 -2q125 -10 283 -63l-51 -181q-31 8 -72 22.5t-84 24t-85 10.5h-5q-39 0 -69 -15 q-32 -15 -52 -52t-20 -102q0 -49 33.5 -72.5t86 -38t111.5 -30t111.5 -50.5t86 -98t33.5 -172q0 -123 -47 -213t-139 -137q-90 -46 -222 -46h-5q-136 1 -312 62z" />
<glyph unicode="t" horiz-adv-x="831" d="M-20 997v189h872v-189h-309v-997h-250v997h-313z" />
<glyph unicode="u" horiz-adv-x="960" d="M102 184v1002h252v-936q0 -18 8 -33q6 -12 18.5 -22.5t35.5 -10.5h129q23 0 35 10.5t18 22.5q8 14 8 33v936h252v-1002q-4 -53 -31 -92q-23 -35 -75 -63.5t-146 -28.5h-252q-96 0 -147 28.5t-74 63.5q-27 39 -31 92z" />
<glyph unicode="v" horiz-adv-x="1036" d="M20 1186h310l188 -811l189 811h309l-404 -1186h-186z" />
<glyph unicode="w" horiz-adv-x="1413" d="M20 1186h312l127 -811l155 811h185l155 -811l129 811h310l-310 -1186h-188l-188 815l-187 -815h-188z" />
<glyph unicode="x" horiz-adv-x="995" d="M59 0l273 643l-271 543h250l189 -389l186 389h248l-268 -543l268 -643h-248l-186 489l-189 -489h-252z" />
<glyph unicode="y" horiz-adv-x="995" d="M0 1186h309l187 -508l188 508h311l-374 -705v-481h-248v481z" />
<glyph unicode="z" horiz-adv-x="890" d="M102 0v213l490 760h-490v213h686v-213l-448 -760h448v-213h-686z" />
<glyph unicode="{" horiz-adv-x="829" d="M61 723l246 158v305q0 92 24.5 143t53.5 74q35 27 78 31h264v-144q-129 0 -185.5 -40t-56.5 -163v-276l-172 -88l172 -92v-305q0 -123 56.5 -163t185.5 -40v-123h-264q-43 4 -78 31q-29 23 -53.5 73t-24.5 144v313z" />
<glyph unicode="|" d="M500 0v1790h178v-1790h-178z" />
<glyph unicode="}" horiz-adv-x="829" d="M102 0v123q129 0 185.5 40t56.5 163v305l172 92l-172 88v276q0 123 -56.5 163t-185.5 40v144h265q43 -4 77 -31q29 -23 53.5 -74t24.5 -143v-305l246 -158l-246 -162v-313q0 -94 -24.5 -144.5t-53.5 -72.5q-35 -27 -77 -31h-265z" />
<glyph unicode="~" horiz-adv-x="1101" d="M102 477v168l283 82q66 8 106.5 -7t76.5 -34.5t77 -35t107 -5.5l247 82v-168l-282 -82q-66 -8 -107 7.5t-76.5 35t-76.5 33.5t-107 6z" />
<glyph unicode="&#xa1;" horiz-adv-x="503" d="M100 0l41 1094h219l41 -1094h-301zM143 1182v252h222v-252h-222z" />
<glyph unicode="&#xa2;" d="M131 580q0 299 94 444t275 160v170h164v-180q41 -6 86 -17.5t92 -28.5l-47 -186q-74 23 -131 29v-783q29 4 62.5 12.5t68.5 18.5l47 -188q-47 -16 -92 -27.5t-86 -19.5v-181h-164v168q-182 12 -276.5 158t-92.5 451zM367 580q0 -164 30.5 -256.5t102.5 -122.5v751 q-72 -35 -102.5 -125.5t-30.5 -246.5z" />
<glyph unicode="&#xa3;" horiz-adv-x="985" d="M88 0v168l129 43q0 8 1 25.5t2 69.5t1 155v284h-119v154h119v74q0 164 43 269.5t122 156.5t189.5 51t243.5 -45l-35 -148q-184 55 -281 -10t-95 -274v-74h165v-154h-165v-493q47 -4 72.5 -20.5t50 -33t56 -27.5t89.5 -3l207 82v-168l-242 -82q-66 -8 -100.5 7.5t-63 34.5 t-62.5 33.5t-100 6.5z" />
<glyph unicode="&#xa4;" horiz-adv-x="1210" d="M109 379l120 121q-35 53 -54 116.5t-19 135.5q0 70 19.5 134t53.5 118l-120 122l127 125l118 -121q53 37 117 57.5t135 20.5q72 0 136.5 -20.5t117.5 -57.5l123 121l125 -127l-123 -120q37 -53 57.5 -118t20.5 -134q0 -72 -20.5 -135.5t-57.5 -116.5l123 -123l-127 -125 l-123 123q-115 -74 -252 -74q-72 0 -134 19.5t-116 54.5l-123 -123zM291 750q0 -147 82 -230.5t233 -83.5q147 0 234.5 83t87.5 231q0 147 -87 234t-235 87q-152 0 -233.5 -87t-81.5 -234z" />
<glyph unicode="&#xa5;" horiz-adv-x="1204" d="M0 1434h375l227 -613l227 613h375l-413 -760l385 20v-211l-424 21v-164l428 20v-210l-428 20v-170h-301v170l-414 -20v210l414 -20v164l-418 -21v211l379 -20z" />
<glyph unicode="&#xa6;" d="M500 0v815h178v-815h-178zM500 1020v770h178v-770h-178z" />
<glyph unicode="&#xa7;" horiz-adv-x="1333" d="M100 45l54 182q51 -14 100 -28.5t96 -20.5q59 -10 105.5 8.5t75 52t39 77.5t-3 88.5t-52.5 82t-106 58.5q-51 16 -103.5 33.5t-95.5 48t-70.5 82t-27.5 137.5q10 207 117.5 297t299.5 74q53 186 229.5 223t452.5 -56l-53 -182q-33 10 -71.5 23.5t-79.5 22.5t-80 11.5 t-72 -9t-55.5 -41t-30.5 -83.5q-4 -23 -2 -45t14 -45q18 -31 60.5 -45t92.5 -27.5t103.5 -32t97.5 -55t71.5 -98t27.5 -162.5q0 -188 -106.5 -297.5t-315.5 -103.5q-29 -80 -89 -135t-149.5 -80t-208.5 -14.5t-264 59.5zM371 856q0 -49 33.5 -71.5t84 -38t109.5 -32 t111.5 -50t89.5 -93t41 -163.5q76 8 110.5 56t31.5 107.5t-43 116.5t-114 82q-47 14 -99 30.5t-97 43t-78 69.5t-41 115q-59 -2 -99 -39t-40 -133z" />
<glyph unicode="&#xa8;" horiz-adv-x="854" d="M100 1536v252h222v-252h-222zM530 1536v252h222v-252h-222z" />
<glyph unicode="&#xa9;" horiz-adv-x="1398" d="M102 831q0 125 46.5 235t126 191.5t187 129t232.5 47.5t234.5 -47.5t191.5 -129t129 -191.5t47 -235t-47 -232t-129 -187t-191.5 -126t-234.5 -46t-232.5 46t-187 126t-126 187t-46.5 232zM225 829q0 -96 37 -181t99.5 -148.5t148.5 -100.5t184 -37q96 0 183.5 37 t153 100.5t103 148.5t37.5 181q0 98 -37.5 184.5t-103 152t-152.5 103.5t-184 38q-98 0 -184 -38t-148.5 -103.5t-99.5 -152t-37 -184.5zM528 836q0 197 86 254t248 4l-22 -88q-111 35 -156 -5t-43 -165q-2 -129 43 -166t156 -2l22 -90q-82 -27 -144.5 -27t-104.5 29.5 t-63.5 92.5t-21.5 163z" />
<glyph unicode="&#xaa;" horiz-adv-x="524" d="M41 1186l176 602h96l170 -602h-127l-28 127h-129l-31 -127h-127zM221 1409h88l-45 186z" />
<glyph unicode="&#xab;" horiz-adv-x="2377" d="M59 543l1028 528v-1069zM1247 543l1028 528v-1069z" />
<glyph unicode="&#xac;" horiz-adv-x="1343" d="M98 496v170h1143v-375h-170v205h-973z" />
<glyph unicode="&#xad;" horiz-adv-x="1343" d="M98 477v252h1143v-252h-1143z" />
<glyph unicode="&#xae;" horiz-adv-x="1398" d="M102 831q0 125 46.5 235t126 191.5t187 129t232.5 47.5t234.5 -47.5t191.5 -129t129 -191.5t47 -235t-47 -232t-129 -187t-191.5 -126t-234.5 -46t-232.5 46t-187 126t-126 187t-46.5 232zM225 829q0 -96 37 -181t99.5 -148.5t148.5 -100.5t184 -37q96 0 183.5 37 t153 100.5t103 148.5t37.5 181q0 98 -37.5 184.5t-103 152t-152.5 103.5t-184 38q-98 0 -184 -38t-148.5 -103.5t-99.5 -152t-37 -184.5zM555 563v553h141q72 0 118 -41t46 -114q0 -12 -4 -31t-13 -37.5t-26.5 -30.5t-42.5 -12q31 -4 53 -21q20 -14 37 -40.5t17 -73.5v-152 h-101v150q0 37 -24.5 60.5t-59.5 23.5h-24v-234h-117zM672 883h33q23 0 40 24.5t17 48.5q0 25 -17.5 49.5t-39.5 24.5h-33v-147z" />
<glyph unicode="&#xaf;" horiz-adv-x="507" d="M98 1618v170h308v-170h-308z" />
<glyph unicode="&#xb0;" horiz-adv-x="563" d="M102 1610q0 74 51.5 127t127.5 53q37 0 69.5 -14.5t57 -39t39 -57t14.5 -69.5q0 -76 -53.5 -127t-126.5 -51q-76 0 -127.5 51t-51.5 127zM162 1610q0 -49 34.5 -84t84.5 -35q49 0 84.5 35t35.5 84t-35.5 85t-84.5 36t-84 -36t-35 -85z" />
<glyph unicode="&#xb1;" d="M100 88v170h824v-170h-824zM100 666v178l322 -2l2 323h178l-2 -323h324v-178h-324v-322h-178v322z" />
<glyph unicode="&#xb2;" horiz-adv-x="1333" d="M98 477v252h1143v-252h-1143z" />
<glyph unicode="&#xb3;" horiz-adv-x="1327" d="M98 477v252h1143v-252h-1143z" />
<glyph unicode="&#xb4;" horiz-adv-x="430" d="M106 1536l41 252h181l-123 -252h-99z" />
<glyph unicode="&#xb5;" horiz-adv-x="960" d="M61 -573l41 1093v666h252v-936q0 -18 8 -33q6 -12 18.5 -22.5t35.5 -10.5h129q23 0 35 10.5t18 22.5q8 14 8 33v936h252v-1002q-4 -53 -31 -92q-23 -35 -75 -63.5t-146 -28.5h-264l20 -573h-301z" />
<glyph unicode="&#x3bc;" horiz-adv-x="960" d="M61 -573l41 1093v666h252v-936q0 -18 8 -33q6 -12 18.5 -22.5t35.5 -10.5h129q23 0 35 10.5t18 22.5q8 14 8 33v936h252v-1002q-4 -53 -31 -92q-23 -35 -75 -63.5t-146 -28.5h-264l20 -573h-301z" />
<glyph unicode="&#xb6;" horiz-adv-x="923" d="M61 1026q0 125 48.5 205t125 125t172 61.5t189.5 16.5h225v-1418q-2 -88 -42 -134t-89 -68q-57 -25 -131 -29h-186v215q111 0 163 29.5t62 117.5v416q-104 0 -201.5 25.5t-171 82t-119 144.5t-45.5 211z" />
<glyph unicode="&#xb7;" horiz-adv-x="421" d="M98 635v252h221v-252h-221z" />
<glyph unicode="&#xb8;" horiz-adv-x="538" d="M96 -449l47 105q33 -6 63 -8t51.5 5t34.5 24.5t13 50.5q0 35 -15.5 59.5t-56.5 24.5h-129l33 188h168l-45 -96q72 0 117 -33q59 -47 59 -143q0 -57 -22.5 -95.5t-54 -61t-66.5 -31.5t-62 -9q-25 0 -56.5 4t-78.5 16z" />
<glyph unicode="&#xb9;" horiz-adv-x="466" d="M90 1673l125 115h96v-602h-106v483l-74 -84z" />
<glyph unicode="&#xba;" horiz-adv-x="966" d="M41 594q0 123 34 232.5t92 193.5t139 133t177 49t177 -49t140.5 -133t92.5 -193.5t33 -232.5t-33 -232.5t-92.5 -192.5t-140 -132t-177.5 -49q-96 0 -177 49t-139 132t-92 192.5t-34 232.5zM291 594q0 -82 11 -158t34.5 -134t60.5 -93t86 -35q47 0 84 35t61.5 93t37 134 t12.5 158t-12.5 157.5t-37 134t-61.5 93.5t-84 35q-49 0 -86 -35t-60.5 -93.5t-34.5 -134t-11 -157.5z" />
<glyph unicode="&#xbb;" horiz-adv-x="2377" d="M100 2v1069l1028 -528zM1288 2v1069l1028 -528z" />
<glyph unicode="&#xbc;" horiz-adv-x="3489" d="M2226 477v252h1143v-252h-1143zM1437 0l410 1434h178l-409 -1434h-179zM98 477v252h1143v-252h-1143z" />
<glyph unicode="&#xbd;" horiz-adv-x="3461" d="M2226 477v252h1143v-252h-1143zM1437 0l410 1434h178l-409 -1434h-179zM98 477v252h1143v-252h-1143z" />
<glyph unicode="&#xbe;" horiz-adv-x="3481" d="M2218 477v252h1143v-252h-1143zM1429 0l410 1434h178l-409 -1434h-179zM98 477v252h1143v-252h-1143z" />
<glyph unicode="&#xbf;" horiz-adv-x="817" d="M61 119q0 82 33 135t82 87t108.5 53.5t112.5 35.5v248h193v-418q-53 -18 -102.5 -28.5t-88.5 -24.5t-61.5 -37t-22.5 -61q0 -66 19.5 -102t52.5 -51t73 -14t83 10t83 22l70 24l54 -180q-158 -53 -282 -62.5t-213 26.5t-138.5 120t-55.5 217zM393 743v207h199v-207h-199z " />
<glyph unicode="&#xc0;" horiz-adv-x="1140" d="M43 0l414 1434h227l416 -1434h-303l-76 303h-309l-66 -303h-303zM389 1788h180l41 -252h-98zM465 528h211l-107 453z" />
<glyph unicode="&#xc1;" horiz-adv-x="1140" d="M43 0l414 1434h227l416 -1434h-303l-76 303h-309l-66 -303h-303zM465 528h211l-107 453zM516 1536l41 252h180l-123 -252h-98z" />
<glyph unicode="&#xc2;" horiz-adv-x="1138" d="M43 0l414 1434h227l416 -1434h-303l-76 303h-309l-66 -303h-303zM330 1536l184 252h98l185 -252h-181l-53 131l-53 -131h-180zM465 528h211l-107 453z" />
<glyph unicode="&#xc3;" horiz-adv-x="1140" d="M43 0l414 1434h227l416 -1434h-303l-76 303h-309l-66 -303h-303zM143 1536v168l283 82q66 8 106.5 -7.5t76.5 -35t77 -34.5t107 -5l247 82v-168l-282 -82q-66 -8 -107 7.5t-76.5 34.5t-76.5 33.5t-107 6.5zM465 528h211l-107 453z" />
<glyph unicode="&#xc4;" horiz-adv-x="1140" d="M43 0l414 1434h227l416 -1434h-303l-76 303h-309l-66 -303h-303zM244 1536v252h221v-252h-221zM465 528h211l-107 453zM674 1536v252h221v-252h-221z" />
<glyph unicode="&#xc5;" horiz-adv-x="1140" d="M43 0l414 1434h227l416 -1434h-303l-76 303h-309l-66 -303h-303zM426 1649q0 59 40 100t99 41t100.5 -41t41.5 -100t-41 -99.5t-101 -40.5q-59 0 -99 40.5t-40 99.5zM465 528h211l-107 453zM473 1649q0 -39 26.5 -66t65.5 -27t66.5 27t27.5 66t-27.5 66.5t-66.5 27.5 t-65.5 -27.5t-26.5 -66.5z" />
<glyph unicode="&#xc6;" horiz-adv-x="1544" d="M-82 0l823 1434h701v-228h-400v-377h248v-225h-248v-377h400v-227h-701v303h-368l-152 -303h-303zM492 528h249v486z" />
<glyph unicode="&#xc7;" horiz-adv-x="1042" d="M61 717q0 252 67 412.5t187.5 239.5t289.5 80t376 -69l-55 -227q-285 86 -433.5 -15.5t-146.5 -420.5q0 -170 37 -274.5t110.5 -155.5t182 -50t250.5 44l55 -228q-98 -33 -186 -50t-168 -19l-39 -80q72 0 117 -33q59 -47 59 -143q0 -57 -22.5 -95.5t-54.5 -61 t-66.5 -31.5t-61.5 -9q-25 0 -56.5 4t-78.5 16l47 105q33 -6 62.5 -8t51 5t35 24.5t13.5 50.5q0 35 -15.5 59.5t-56.5 24.5h-129l31 184q-190 43 -297 217t-105 504z" />
<glyph unicode="&#xc8;" horiz-adv-x="905" d="M102 0v1434h701v-228h-400v-377h248v-225h-248v-377h400v-227h-701zM344 1788h180l41 -252h-98z" />
<glyph unicode="&#xc9;" horiz-adv-x="905" d="M102 0v1434h701v-228h-400v-377h248v-225h-248v-377h400v-227h-701zM410 1536l41 252h180l-123 -252h-98z" />
<glyph unicode="&#xca;" horiz-adv-x="905" d="M102 0v1434h701v-228h-400v-377h248v-225h-248v-377h400v-227h-701zM246 1536l184 252h98l185 -252h-181l-53 131l-53 -131h-180z" />
<glyph unicode="&#xcb;" horiz-adv-x="884" d="M102 0v1434h701v-228h-400v-377h248v-225h-248v-377h400v-227h-701zM127 1536v252h221v-252h-221zM557 1536v252h221v-252h-221z" />
<glyph unicode="&#xcc;" horiz-adv-x="505" d="M98 1788h181l40 -252h-98zM102 0v1434h301v-1434h-301z" />
<glyph unicode="&#xcd;" horiz-adv-x="505" d="M102 0v1434h301v-1434h-301zM201 1536l41 252h180l-123 -252h-98z" />
<glyph unicode="&#xce;" horiz-adv-x="505" d="M14 1536l185 252h98l184 -252h-180l-53 131l-53 -131h-181zM102 0v1434h301v-1434h-301z" />
<glyph unicode="&#xcf;" horiz-adv-x="505" d="M-74 1536v252h221v-252h-221zM102 0v1434h301v-1434h-301zM356 1536v252h222v-252h-222z" />
<glyph unicode="&#xd0;" d="M-102 604v209h204v621h285q141 2 252 -48.5t187.5 -143.5t117.5 -224t41 -289q0 -160 -41 -294t-117.5 -231.5t-187.5 -150.5t-252 -53h-285v604h-204zM387 248q82 -4 142.5 33.5t99.5 103.5t58.5 153t19.5 183q-4 98 -22.5 186t-56.5 153.5t-97.5 102.5t-143.5 31v-381 h203v-209h-203v-356z" />
<glyph unicode="&#xd1;" horiz-adv-x="1101" d="M102 0v1434h301l289 -861v861h301v-1434h-301l-289 860v-860h-301zM102 1536v168l283 82q66 8 106.5 -7.5t76.5 -35t77 -34.5t107 -5l247 82v-168l-282 -82q-66 -8 -107 7.5t-76.5 34.5t-76.5 33.5t-107 6.5z" />
<glyph unicode="&#xd2;" horiz-adv-x="1153" d="M41 717q0 147 41 279t112.5 233.5t169 161t211.5 59.5q117 0 215.5 -59.5t170 -161t111.5 -233.5t40 -279t-40 -280.5t-111.5 -234t-170 -159.5t-215.5 -59q-115 0 -212 59t-168.5 159.5t-112.5 234t-41 280.5zM344 717q0 -98 13.5 -190.5t42 -162t72.5 -111.5t103 -42 q57 0 102.5 42t74 111.5t44 161.5t15.5 191q0 98 -15.5 190t-44 162t-73.5 112t-103 42q-59 0 -103 -42t-72.5 -112t-42 -162t-13.5 -190zM399 1788h181l41 -252h-99z" />
<glyph unicode="&#xd3;" horiz-adv-x="1153" d="M41 717q0 147 41 279t112.5 233.5t169 161t211.5 59.5q117 0 215.5 -59.5t170 -161t111.5 -233.5t40 -279t-40 -280.5t-111.5 -234t-170 -159.5t-215.5 -59q-115 0 -212 59t-168.5 159.5t-112.5 234t-41 280.5zM344 717q0 -98 13.5 -190.5t42 -162t72.5 -111.5t103 -42 q57 0 102.5 42t74 111.5t44 161.5t15.5 191q0 98 -15.5 190t-44 162t-73.5 112t-103 42q-59 0 -103 -42t-72.5 -112t-42 -162t-13.5 -190zM506 1536l41 252h180l-123 -252h-98z" />
<glyph unicode="&#xd4;" horiz-adv-x="1153" d="M41 717q0 147 41 279t112.5 233.5t169 161t211.5 59.5q117 0 215.5 -59.5t170 -161t111.5 -233.5t40 -279t-40 -280.5t-111.5 -234t-170 -159.5t-215.5 -59q-115 0 -212 59t-168.5 159.5t-112.5 234t-41 280.5zM334 1536l184 252h98l185 -252h-180l-54 131l-53 -131h-180 zM344 717q0 -98 13.5 -190.5t42 -162t72.5 -111.5t103 -42q57 0 102.5 42t74 111.5t44 161.5t15.5 191q0 98 -15.5 190t-44 162t-73.5 112t-103 42q-59 0 -103 -42t-72.5 -112t-42 -162t-13.5 -190z" />
<glyph unicode="&#xd5;" horiz-adv-x="1153" d="M41 717q0 147 41 279t112.5 233.5t169 161t211.5 59.5q117 0 215.5 -59.5t170 -161t111.5 -233.5t40 -279t-40 -280.5t-111.5 -234t-170 -159.5t-215.5 -59q-115 0 -212 59t-168.5 159.5t-112.5 234t-41 280.5zM143 1536v168l283 82q66 8 106.5 -7.5t76.5 -35t77 -34.5 t107 -5l247 82v-168l-282 -82q-66 -8 -107 7.5t-76.5 34.5t-76.5 33.5t-107 6.5zM344 717q0 -98 13.5 -190.5t42 -162t72.5 -111.5t103 -42q57 0 102.5 42t74 111.5t44 161.5t15.5 191q0 98 -15.5 190t-44 162t-73.5 112t-103 42q-59 0 -103 -42t-72.5 -112t-42 -162 t-13.5 -190z" />
<glyph unicode="&#xd6;" horiz-adv-x="1153" d="M41 717q0 147 41 279t112.5 233.5t169 161t211.5 59.5q117 0 215.5 -59.5t170 -161t111.5 -233.5t40 -279t-40 -280.5t-111.5 -234t-170 -159.5t-215.5 -59q-115 0 -212 59t-168.5 159.5t-112.5 234t-41 280.5zM244 1536v252h221v-252h-221zM344 717q0 -98 13.5 -190.5 t42 -162t72.5 -111.5t103 -42q57 0 102.5 42t74 111.5t44 161.5t15.5 191q0 98 -15.5 190t-44 162t-73.5 112t-103 42q-59 0 -103 -42t-72.5 -112t-42 -162t-13.5 -190zM674 1536v252h221v-252h-221z" />
<glyph unicode="&#xd7;" d="M158 526l227 228l-227 229l127 125l225 -227l231 227l125 -127l-229 -227l229 -230l-127 -125l-229 228l-227 -228z" />
<glyph unicode="&#xd8;" horiz-adv-x="1153" d="M41 717q0 147 41 279t112.5 233.5t169 161t211.5 59.5q72 0 137.5 -24.5t125.5 -67.5l43 76h178l-109 -191q76 -102 119 -238.5t43 -287.5q0 -147 -40 -280.5t-111.5 -234t-170 -159.5t-215.5 -59q-80 0 -151.5 27.5t-130.5 80.5l-53 -92h-179l123 215 q-68 100 -105.5 229.5t-37.5 272.5zM344 717q0 -53 3 -102.5t11 -96.5l355 623q-29 39 -63 60.5t-75 21.5q-59 0 -103 -42t-72.5 -112t-42 -162t-13.5 -190zM422 317q29 -49 66.5 -77.5t86.5 -28.5q57 0 102.5 42t74 111.5t44 161.5t15.5 191q0 129 -25 239z" />
<glyph unicode="&#xd9;" d="M102 223v1211h304v-1133q2 -23 10 -39t22.5 -27.5t42.5 -11.5h115q29 0 43 11.5t23 27.5q8 16 10 39v1133h303v-1211q-6 -63 -39 -112q-29 -41 -89.5 -76t-174.5 -35h-266q-115 0 -176.5 35t-90.5 76q-35 49 -37 112zM354 1788h181l40 -252h-98z" />
<glyph unicode="&#xda;" d="M102 223v1211h304v-1133q2 -23 10 -39t22.5 -27.5t42.5 -11.5h115q29 0 43 11.5t23 27.5q8 16 10 39v1133h303v-1211q-6 -63 -39 -112q-29 -41 -89.5 -76t-174.5 -35h-266q-115 0 -176.5 35t-90.5 76q-35 49 -37 112zM457 1536l41 252h180l-123 -252h-98z" />
<glyph unicode="&#xdb;" d="M102 223v1211h304v-1133q2 -23 10 -39t22.5 -27.5t42.5 -11.5h115q29 0 43 11.5t23 27.5q8 16 10 39v1133h303v-1211q-6 -63 -39 -112q-29 -41 -89.5 -76t-174.5 -35h-266q-115 0 -176.5 35t-90.5 76q-35 49 -37 112zM291 1536l184 252h98l185 -252h-180l-54 131 l-53 -131h-180z" />
<glyph unicode="&#xdc;" horiz-adv-x="1077" d="M102 223v1211h304v-1133q2 -23 10 -39t22.5 -27.5t42.5 -11.5h115q29 0 43 11.5t23 27.5q8 16 10 39v1133h303v-1211q-6 -63 -39 -112q-29 -41 -89.5 -76t-174.5 -35h-266q-115 0 -176.5 35t-90.5 76q-35 49 -37 112zM215 1536v252h221v-252h-221zM645 1536v252h221v-252 h-221z" />
<glyph unicode="&#xdd;" horiz-adv-x="1204" d="M0 1434h375l227 -613l227 613h375l-452 -852v-582h-301v582zM539 1536l41 252h180l-123 -252h-98z" />
<glyph unicode="&#xde;" horiz-adv-x="860" d="M102 -575v2007h238v-261h2q76 0 158 -29.5t147.5 -86t108.5 -138t43 -186.5q0 -102 -40 -190t-104.5 -153.5t-147.5 -103.5t-169 -38v-821h-236zM338 451q43 0 84 24.5t72.5 64.5t52 89t20.5 96t-20.5 93t-52 83t-72.5 59.5t-84 24.5v-534z" />
<glyph unicode="&#xdf;" horiz-adv-x="1112" d="M84 0v694q0 133 30.5 230.5t85 159t129 91t165.5 27.5q104 -2 188 -24q37 -10 71.5 -26.5t63.5 -40.5t48.5 -55.5t23.5 -74.5q4 -55 -12.5 -97t-38 -81t-41 -80t-19.5 -90q0 -27 21.5 -42.5t54.5 -30.5t71 -32.5t70.5 -49.5t54 -82t21.5 -128q0 -86 -40 -150.5 t-112.5 -98t-175 -32.5t-227.5 44l51 174q68 -18 115 -30.5t78 -12.5t48 17.5t26 56.5q6 31 -16.5 54t-59.5 44.5t-83 44t-85 52.5t-65.5 69t-26.5 96q0 23 14 59.5t31.5 79.5t33 85t16.5 77t-17.5 56.5t-67.5 21.5q-41 0 -71.5 -11.5t-52.5 -43t-32 -86t-10 -140.5v-694 h-258z" />
<glyph unicode="&#xe0;" d="M43 0l342 1186h188l345 -1186h-252l-62 252h-256l-53 -252h-252zM317 1542h181l41 -252h-99zM393 438h174l-88 373z" />
<glyph unicode="&#xe1;" d="M43 0l342 1186h188l345 -1186h-252l-62 252h-256l-53 -252h-252zM393 438h174l-88 373zM408 1290l41 252h180l-123 -252h-98z" />
<glyph unicode="&#xe2;" horiz-adv-x="958" d="M43 0l342 1186h188l345 -1186h-252l-62 252h-256l-53 -252h-252zM246 1290l184 252h98l185 -252h-181l-53 131l-53 -131h-180zM393 438h174l-88 373z" />
<glyph unicode="&#xe3;" horiz-adv-x="958" d="M43 0l342 1186h188l345 -1186h-252l-62 250h-256l-55 -250h-250zM127 1278v131l233 68q55 6 89 -6.5t63 -29t62.5 -28.5t89.5 -4l204 68v-131l-233 -68q-55 -8 -89 4t-63.5 29.5t-63.5 30t-87 4.5zM391 436h174l-88 375z" />
<glyph unicode="&#xe4;" horiz-adv-x="958" d="M43 0l342 1186h188l345 -1186h-252l-62 252h-256l-53 -252h-252zM184 1290v252h222v-252h-222zM184 1290v252h222v-252h-222zM393 438h174l-88 373zM553 1290v252h221v-252h-221zM553 1290v252h221v-252h-221z" />
<glyph unicode="&#xe5;" d="M43 0l342 1186h188l345 -1186h-252l-62 252h-256l-53 -252h-252zM336 1399q0 59 40 100t99 41t100 -41t41 -100t-40.5 -99t-100.5 -40q-59 0 -99 40t-40 99zM383 1399q0 -39 26.5 -65.5t65.5 -26.5t66.5 26.5t27.5 65.5t-27.5 66.5t-66.5 27.5t-65.5 -27.5t-26.5 -66.5z M393 438h174l-88 373z" />
<glyph unicode="&#xe6;" horiz-adv-x="1282" d="M-82 0l680 1186h582v-189h-332v-311h205v-184h-205v-314h332v-188h-582v252h-303l-125 -252h-252zM393 438h205v400z" />
<glyph unicode="&#xe7;" horiz-adv-x="882" d="M59 602q0 209 55.5 341t155 195.5t239.5 63.5t312 -57l-45 -189q-238 70 -360.5 -14t-120.5 -346q0 -139 29.5 -227t91 -129t151.5 -41t209 37l45 -189q-82 -29 -154.5 -43t-138.5 -16l-34 -68q66 0 106.5 -38t40.5 -107q0 -47 -18.5 -79t-45 -50.5t-56 -25.5t-52.5 -7 q-20 0 -45 3t-66 13l41 86q53 -10 94.5 -2t41.5 62q0 31 -13.5 50t-50.5 19h-106l28 154q-160 37 -248 183.5t-86 420.5z" />
<glyph unicode="&#xe8;" horiz-adv-x="784" d="M102 0v1186h580v-189h-330v-311h205v-186h-205v-312h330v-188h-580zM236 1542h180l41 -252h-99z" />
<glyph unicode="&#xe9;" horiz-adv-x="784" d="M102 0v1186h580v-189h-330v-311h205v-186h-205v-312h330v-188h-580zM367 1290l41 252h180l-123 -252h-98z" />
<glyph unicode="&#xea;" horiz-adv-x="784" d="M123 0v1186h579v-189h-329v-311h205v-186h-205v-312h329v-188h-579zM203 1290l184 252h98l185 -252h-181l-53 131l-53 -131h-180z" />
<glyph unicode="&#xeb;" horiz-adv-x="784" d="M102 0v1186h580v-189h-330v-311h205v-186h-205v-312h330v-188h-580zM111 1290v252h221v-252h-221zM479 1290v252h221v-252h-221z" />
<glyph unicode="&#xec;" horiz-adv-x="454" d="M92 1542h180l41 -252h-98zM102 0v1186h250v-1186h-250z" />
<glyph unicode="&#xed;" horiz-adv-x="454" d="M102 0v1186h250v-1186h-250zM154 1290l41 252h180l-123 -252h-98z" />
<glyph unicode="&#xee;" horiz-adv-x="454" d="M-2 1290l184 252h99l184 -252h-180l-54 131l-53 -131h-180zM102 0v1186h250v-1186h-250z" />
<glyph unicode="&#xef;" horiz-adv-x="450" d="M-74 1290v252h221v-252h-221zM102 0v1186h250v-1186h-250zM295 1290v252h221v-252h-221z" />
<glyph unicode="&#xf0;" horiz-adv-x="897" d="M-63 498v176h167v512h236q119 2 211 -40t155.5 -119t96.5 -185.5t33 -237.5q0 -133 -33 -243.5t-96.5 -190.5t-155.5 -125t-211 -45h-236v498h-167zM340 205q68 -4 118 27.5t83.5 85t50 125t16.5 151.5q-4 82 -19.5 155.5t-48 128t-81.5 85t-119 24.5v-313h168v-176h-168 v-293z" />
<glyph unicode="&#xf1;" horiz-adv-x="942" d="M102 0v1186h250l238 -713v713h250v-1186h-250l-238 711v-711h-250zM106 1278v131l234 68q55 6 89 -6.5t62.5 -29t62.5 -28.5t89 -4l205 68v-131l-234 -68q-55 -8 -88.5 4t-63.5 29.5t-63.5 30t-87.5 4.5z" />
<glyph unicode="&#xf2;" horiz-adv-x="966" d="M41 594q0 123 34 232.5t92 193.5t139 133t177 49t177 -49t140.5 -133t92.5 -193.5t33 -232.5t-33 -232.5t-92.5 -192.5t-140 -132t-177.5 -49q-96 0 -177 49t-139 132t-92 192.5t-34 232.5zM291 594q0 -82 11 -158t34.5 -134t60.5 -93t86 -35q47 0 84 35t61.5 93t37 134 t12.5 158t-12.5 157.5t-37 134t-61.5 93.5t-84 35q-49 0 -86 -35t-60.5 -93.5t-34.5 -134t-11 -157.5zM307 1542h180l41 -252h-98z" />
<glyph unicode="&#xf3;" horiz-adv-x="966" d="M41 594q0 123 34 232.5t92 193.5t139 133t177 49t177 -49t140.5 -133t92.5 -193.5t33 -232.5t-33 -232.5t-92.5 -192.5t-140 -132t-177.5 -49q-96 0 -177 49t-139 132t-92 192.5t-34 232.5zM291 594q0 -82 11 -158t34.5 -134t60.5 -93t86 -35q47 0 84 35t61.5 93t37 134 t12.5 158t-12.5 157.5t-37 134t-61.5 93.5t-84 35q-49 0 -86 -35t-60.5 -93.5t-34.5 -134t-11 -157.5zM408 1290l41 252h180l-123 -252h-98z" />
<glyph unicode="&#xf4;" horiz-adv-x="966" d="M41 594q0 123 34 232.5t92 193.5t139 133t177 49t177 -49t140.5 -133t92.5 -193.5t33 -232.5t-33 -232.5t-92.5 -192.5t-140 -132t-177.5 -49q-96 0 -177 49t-139 132t-92 192.5t-34 232.5zM246 1290l184 252h98l185 -252h-181l-53 131l-53 -131h-180zM291 594 q0 -82 11 -158t34.5 -134t60.5 -93t86 -35q47 0 84 35t61.5 93t37 134t12.5 158t-12.5 157.5t-37 134t-61.5 93.5t-84 35q-49 0 -86 -35t-60.5 -93.5t-34.5 -134t-11 -157.5z" />
<glyph unicode="&#xf5;" horiz-adv-x="966" d="M41 594q0 123 34 232.5t92 193.5t139 133t177 49t177 -49t140.5 -133t92.5 -193.5t33 -232.5t-33 -232.5t-92.5 -192.5t-140 -132t-177.5 -49q-96 0 -177 49t-139 132t-92 192.5t-34 232.5zM127 1278v131l233 68q55 6 89 -6.5t63 -29t62.5 -28.5t89.5 -4l204 68v-131 l-233 -68q-55 -8 -89 4t-63.5 29.5t-63.5 30t-87 4.5zM291 594q0 -82 11 -158t34.5 -134t60.5 -93t86 -35q47 0 84 35t61.5 93t37 134t12.5 158t-12.5 157.5t-37 134t-61.5 93.5t-84 35q-49 0 -86 -35t-60.5 -93.5t-34.5 -134t-11 -157.5z" />
<glyph unicode="&#xf6;" horiz-adv-x="966" d="M41 594q0 123 34 232.5t92 193.5t139 133t177 49t177 -49t140.5 -133t92.5 -193.5t33 -232.5t-33 -232.5t-92.5 -192.5t-140 -132t-177.5 -49q-96 0 -177 49t-139 132t-92 192.5t-34 232.5zM172 1290v252h221v-252h-221zM291 594q0 -82 11 -158t34.5 -134t60.5 -93 t86 -35q47 0 84 35t61.5 93t37 134t12.5 158t-12.5 157.5t-37 134t-61.5 93.5t-84 35q-49 0 -86 -35t-60.5 -93.5t-34.5 -134t-11 -157.5zM541 1290v252h221v-252h-221z" />
<glyph unicode="&#xf7;" horiz-adv-x="1343" d="M98 496v170h1143v-170h-1143zM528 141v252h222v-252h-222zM528 768v252h222v-252h-222z" />
<glyph unicode="&#xf8;" horiz-adv-x="968" d="M41 592q0 121 34 231.5t93 193.5t140 132t175 49q59 0 114.5 -20.5t102.5 -55.5l37 64h148l-90 -160q61 -84 97 -196.5t36 -237.5q0 -123 -34 -232.5t-93.5 -193.5t-140 -133t-177.5 -49q-131 0 -233 90l-45 -76h-148l103 178q-55 82 -87 189.5t-32 226.5zM293 592 q0 -45 2 -86t8 -80l295 516q-49 68 -115 68q-49 0 -85 -35t-59.5 -93.5t-34.5 -133t-11 -156.5zM356 260q23 -41 54.5 -64.5t72.5 -23.5q49 0 85 35t60.5 93t37 134t12.5 158q0 106 -19 199z" />
<glyph unicode="&#xf9;" horiz-adv-x="960" d="M102 184v1002h252v-936q0 -18 8 -33q6 -12 18.5 -22.5t35.5 -10.5h129q23 0 35 10.5t18 22.5q8 14 8 33v936h252v-1002q-4 -53 -31 -92q-23 -35 -75 -63.5t-146 -28.5h-252q-96 0 -147 28.5t-74 63.5q-27 39 -31 92zM317 1542h181l41 -252h-99z" />
<glyph unicode="&#xfa;" horiz-adv-x="960" d="M102 184v1002h252v-936q0 -18 8 -33q6 -12 18.5 -22.5t35.5 -10.5h129q23 0 35 10.5t18 22.5q8 14 8 33v936h252v-1002q-4 -53 -31 -92q-23 -35 -75 -63.5t-146 -28.5h-252q-96 0 -147 28.5t-74 63.5q-27 39 -31 92zM428 1290l41 252h180l-123 -252h-98z" />
<glyph unicode="&#xfb;" horiz-adv-x="960" d="M102 184v1002h252v-936q0 -18 8 -33q6 -12 18.5 -22.5t35.5 -10.5h129q23 0 35 10.5t18 22.5q8 14 8 33v936h252v-1002q-4 -53 -31 -92q-23 -35 -75 -63.5t-146 -28.5h-252q-96 0 -147 28.5t-74 63.5q-27 39 -31 92zM246 1290l184 252h98l185 -252h-181l-53 131l-53 -131 h-180z" />
<glyph unicode="&#xfc;" horiz-adv-x="960" d="M102 184v1002h252v-936q0 -18 8 -33q6 -12 18.5 -22.5t35.5 -10.5h129q23 0 35 10.5t18 22.5q8 14 8 33v936h252v-1002q-4 -53 -31 -92q-23 -35 -75 -63.5t-146 -28.5h-252q-96 0 -147 28.5t-74 63.5q-27 39 -31 92zM172 1290v252h221v-252h-221zM541 1290v252h221v-252 h-221z" />
<glyph unicode="&#xfd;" horiz-adv-x="995" d="M0 1186h309l187 -508l188 508h311l-374 -705v-481h-248v481zM428 1290l41 252h180l-123 -252h-98z" />
<glyph unicode="&#xfe;" d="M102 -575v1761h238v-465h2q76 0 158 -13.5t147.5 -51.5t108.5 -103.5t43 -169.5q0 -102 -40 -175t-104.5 -119t-147.5 -67.5t-169 -21.5v-575h-236zM338 205q43 0 84 9t72.5 29.5t52 53.5t20.5 80t-20.5 77.5t-52 47t-72.5 23.5t-84 10v-330z" />
<glyph unicode="&#xff;" d="M0 1186h309l187 -508l188 508h311l-374 -705v-481h-248v481zM172 1290v252h221v-252h-221zM541 1290v252h221v-252h-221z" />
<glyph unicode="&#x152;" horiz-adv-x="1583" d="M43 719q0 143 40 273t110.5 228.5t166 156t207.5 57.5h914v-228h-391v-377h243v-225h-243v-377h391v-227h-914q-113 0 -208 58.5t-165.5 156.5t-110.5 228.5t-40 275.5zM340 719q0 -96 13.5 -185.5t41 -158t70.5 -109.5t102 -41q104 0 166 129t62 365t-61.5 365.5 t-166.5 129.5q-59 0 -102 -40.5t-70.5 -109.5t-41 -158t-13.5 -187z" />
<glyph unicode="&#x153;" horiz-adv-x="1335" d="M43 594q0 119 33 226.5t91 188.5t138 129t172 48h756v-189h-324v-311h201v-186h-201v-312h324v-188h-756q-92 0 -172 48t-138 130t-91 189.5t-33 226.5zM289 594q0 -80 11 -153.5t33.5 -130t58.5 -90.5t85 -34q86 0 137.5 106.5t51.5 301.5q0 197 -51.5 303.5 t-137.5 106.5q-49 0 -85 -34t-58.5 -90.5t-33.5 -131t-11 -154.5z" />
<glyph unicode="&#x178;" horiz-adv-x="1204" d="M0 1434h375l227 -613l227 613h375l-452 -852v-582h-301v582zM276 1536v252h222v-252h-222zM707 1536v252h221v-252h-221z" />
<glyph unicode="&#x2c6;" horiz-adv-x="673" d="M104 1536l185 252h98l184 -252h-180l-53 131l-53 -131h-181z" />
<glyph unicode="&#x2dc;" horiz-adv-x="1101" d="M102 1577v127l283 82q66 8 106.5 -7.5t76.5 -35t77 -34.5t107 -5l247 82v-127l-282 -82q-66 -8 -107 7t-76.5 34.5t-76.5 34t-107 6.5z" />
<glyph unicode="&#x2000;" horiz-adv-x="894" />
<glyph unicode="&#x2001;" horiz-adv-x="1789" />
<glyph unicode="&#x2002;" horiz-adv-x="894" />
<glyph unicode="&#x2003;" horiz-adv-x="1789" />
<glyph unicode="&#x2004;" horiz-adv-x="595" />
<glyph unicode="&#x2005;" horiz-adv-x="446" />
<glyph unicode="&#x2006;" horiz-adv-x="296" />
<glyph unicode="&#x2007;" horiz-adv-x="296" />
<glyph unicode="&#x2008;" horiz-adv-x="223" />
<glyph unicode="&#x2009;" horiz-adv-x="356" />
<glyph unicode="&#x200a;" horiz-adv-x="98" />
<glyph unicode="&#x2010;" horiz-adv-x="1343" d="M98 477v252h1143v-252h-1143z" />
<glyph unicode="&#x2011;" horiz-adv-x="1343" d="M98 477v252h1143v-252h-1143z" />
<glyph unicode="&#x2012;" horiz-adv-x="1343" d="M98 477v252h1143v-252h-1143z" />
<glyph unicode="&#x2013;" horiz-adv-x="1101" d="M102 477v252h897v-252h-897z" />
<glyph unicode="&#x2014;" horiz-adv-x="1409" d="M102 477v252h1205v-252h-1205z" />
<glyph unicode="&#x2018;" horiz-adv-x="419" d="M96 1188v252h221v-252h-41l41 -252h-98z" />
<glyph unicode="&#x2019;" horiz-adv-x="419" d="M96 936l41 252h-41v252h221v-252l-122 -252h-99z" />
<glyph unicode="&#x201a;" horiz-adv-x="419" d="M96 0v252h221v-252l-122 -252h-99l41 252h-41z" />
<glyph unicode="&#x201c;" horiz-adv-x="849" d="M96 1188v252h221v-252h-41l41 -252h-98zM526 1188v252h222v-252h-41l41 -252h-99z" />
<glyph unicode="&#x201d;" horiz-adv-x="849" d="M96 936l41 252h-41v252h221v-252l-122 -252h-99zM526 936l41 252h-41v252h222v-252l-123 -252h-99z" />
<glyph unicode="&#x201e;" horiz-adv-x="849" d="M96 0v252h221v-252l-122 -252h-99l41 252h-41zM526 0v252h222v-252l-123 -252h-99l41 252h-41z" />
<glyph unicode="&#x2022;" horiz-adv-x="641" d="M98 430v500h441v-500h-441z" />
<glyph unicode="&#x2026;" horiz-adv-x="1282" d="M98 0v252h221v-252h-221zM528 0v252h222v-252h-222zM958 0v252h222v-252h-222z" />
<glyph unicode="&#x202f;" horiz-adv-x="356" />
<glyph unicode="&#x2039;" horiz-adv-x="1189" d="M59 543l1028 528v-1069z" />
<glyph unicode="&#x203a;" horiz-adv-x="1189" d="M100 2v1069l1028 -528z" />
<glyph unicode="&#x2044;" horiz-adv-x="792" d="M102 0l410 1434h178l-409 -1434h-179z" />
<glyph unicode="&#x205f;" horiz-adv-x="446" />
<glyph unicode="&#x20ac;" d="M-102 762v209h182q33 172 110.5 280.5t193.5 157.5t266.5 41t328.5 -68l-55 -227q-217 66 -355.5 24t-191.5 -208h459v-209h-492q0 -31 -1 -60.5t3 -62.5h494v-211h-453q59 -150 193.5 -179.5t343.5 34.5l55 -228q-174 -59 -322.5 -70.5t-264.5 32.5t-193.5 144.5 t-112.5 266.5h-184v211h159q-2 20 -2 45v78h-161z" />
<glyph unicode="&#x2122;" horiz-adv-x="1206" d="M82 1692v96h442v-96h-155v-506h-127v506h-160zM575 1186v602h160l96 -412l93 412h159v-602h-129v393l-92 -393h-61l-96 393v-393h-130z" />
<glyph unicode="&#xe000;" horiz-adv-x="1185" d="M0 1185h1185v-1185h-1185v1185z" />
<glyph unicode="&#xfb01;" horiz-adv-x="1236" d="M102 0v1186h580v-189h-330v-311h205v-186h-205v-500h-250zM885 0v1186h250v-1186h-250z" />
<glyph unicode="&#xfb02;" horiz-adv-x="1456" d="M102 0v1186h580v-189h-330v-311h205v-186h-205v-500h-250zM793 0v1186h249v-998h373v-188h-622z" />
<glyph unicode="&#xfb03;" horiz-adv-x="2013" d="M102 0v1186h580v-189h-330v-311h205v-186h-205v-500h-250zM885 0v1186h579v-189h-329v-311h204v-186h-204v-500h-250zM1667 0v1186h250v-1186h-250z" />
<glyph unicode="&#xfb04;" horiz-adv-x="2263" d="M102 0v1186h580v-189h-330v-311h205v-186h-205v-500h-250zM885 0v1186h579v-189h-329v-311h204v-186h-204v-500h-250zM1575 0v1186h250v-998h373v-188h-623z" />
</font>
</defs>
</svg>
